<svg xmlns="http://www.w3.org/2000/svg" width="372.397" height="162.509" viewBox="0 0 372.397 162.509">
  <g id="Group_297" data-name="Group 297" transform="translate(-580.486 -431.5)">
    <g id="Group_290" data-name="Group 290" transform="translate(161.448 -493.891)">
      <path id="Path_3867" data-name="Path 3867" d="M518.875,1024.67h15.978v28.069H518.875v33.36H482.493v-33.36H421.711l-2.159-22.24,62.941-101.267v-.323h36.383Zm-64.668,0h28.285V976.3l-2.267,3.671Z" transform="translate(0 -0.859)" fill="#fff" stroke="#ff8f00" stroke-width="1"/>
      <path id="Path_3868" data-name="Path 3868" d="M712.026,1021q0,31.85-14.305,49.122T657.4,1087.4q-26.234,0-40.593-17.381T602.446,1021V992.287q0-31.847,14.3-49.122t40.431-17.273q26.126,0,40.486,17.382t14.359,49.122Zm-36.383-33.36q0-16.948-4.427-25.317t-14.035-8.366q-9.392,0-13.657,7.773t-4.588,23.536v40.161q0,17.6,4.426,25.749t14.035,8.15q9.284,0,13.711-7.935t4.534-24.885Z" transform="translate(-52.046)" fill="#fff" stroke="#ff8f00" stroke-width="1"/>
      <path id="Path_3869" data-name="Path 3869" d="M876.815,1024.67h15.978v28.069H876.815v33.36H840.434v-33.36H779.651l-2.159-22.24,62.942-101.267v-.323h36.382Zm-64.668,0h28.286V976.3l-2.267,3.671Z" transform="translate(-101.858 -0.859)" fill="#fff" stroke="#ff8f00" stroke-width="1"/>
    </g>
  </g>
</svg>
