<svg xmlns="http://www.w3.org/2000/svg" width="26.272" height="26.272" viewBox="0 0 26.272 26.272">
  <g id="Group_1433" data-name="Group 1433" transform="translate(-33.819 -95.378) rotate(45)">
    <path id="Path_3913" data-name="Path 3913" d="M116.938,37.624a.36.36,0,0,0-.36.36V53.048a.474.474,0,0,1-.473.473H103.762a.473.473,0,0,1-.473-.473V34.009a.473.473,0,0,1,.473-.473H116.1a.474.474,0,0,1,.473.473V36.64a.36.36,0,0,0,.72,0V34.009a1.194,1.194,0,0,0-1.193-1.193H103.762a1.194,1.194,0,0,0-1.193,1.193V53.048a1.194,1.194,0,0,0,1.193,1.193H116.1a1.194,1.194,0,0,0,1.193-1.193V37.984A.36.36,0,0,0,116.938,37.624Z" transform="translate(0 0)" fill="#2a2c30" stroke="#2a2c30" stroke-width="0.5"/>
    <path id="Path_3914" data-name="Path 3914" d="M276.946,101.378a.7.7,0,0,0-.7-.7h-2.555a.7.7,0,0,0-.7.7v2.715a.7.7,0,0,0,.7.7h2.555a.7.7,0,0,0,.7-.7Zm-.743.045v2.625h-2.464v-2.625Zm-2.51,3.272Z" transform="translate(-162.247 -64.607)" fill="#2a2c30" stroke="#2a2c30" stroke-width="0.5"/>
    <path id="Path_3915" data-name="Path 3915" d="M276.946,213.378a.7.7,0,0,0-.7-.7h-2.555a.7.7,0,0,0-.7.7v2.715a.7.7,0,0,0,.7.7h2.555a.7.7,0,0,0,.7-.7Zm-.743.045v2.625h-2.464v-2.625Zm-2.51,3.272Z" transform="translate(-162.247 -171.231)" fill="#2a2c30" stroke="#2a2c30" stroke-width="0.5"/>
    <path id="Path_3916" data-name="Path 3916" d="M276.249,325.68h-2.555a.7.7,0,0,0-.7.7v2.715a.7.7,0,0,0,.7.7h2.555a.7.7,0,0,0,.7-.7v-2.715A.7.7,0,0,0,276.249,325.68Zm-.045.743v2.625h-2.464v-2.625Zm-2.51,3.272Z" transform="translate(-162.247 -278.807)" fill="#2a2c30" stroke="#2a2c30" stroke-width="0.5"/>
    <path id="Path_3917" data-name="Path 3917" d="M160.652,101.378a.7.7,0,0,0-.7-.7H157.4a.7.7,0,0,0-.7.7v2.715a.7.7,0,0,0,.7.7h2.555a.7.7,0,0,0,.7-.7Zm-.743.045v2.625h-2.464v-2.625Zm-2.51,3.272Z" transform="translate(-51.535 -64.607)" fill="#2a2c30" stroke="#2a2c30" stroke-width="0.5"/>
    <path id="Path_3918" data-name="Path 3918" d="M160.652,213.378a.7.7,0,0,0-.7-.7H157.4a.7.7,0,0,0-.7.7v2.715a.7.7,0,0,0,.7.7h2.555a.7.7,0,0,0,.7-.7Zm-.743.045v2.625h-2.464v-2.625Zm-2.51,3.272Z" transform="translate(-51.535 -171.231)" fill="#2a2c30" stroke="#2a2c30" stroke-width="0.5"/>
    <path id="Path_3919" data-name="Path 3919" d="M159.955,325.68H157.4a.7.7,0,0,0-.7.7v2.715a.7.7,0,0,0,.7.7h2.555a.7.7,0,0,0,.7-.7v-2.715A.7.7,0,0,0,159.955,325.68Zm-.045.743v2.625h-2.464v-2.625Zm-2.51,3.272Z" transform="translate(-51.535 -278.807)" fill="#2a2c30" stroke="#2a2c30" stroke-width="0.5"/>
  </g>
</svg>
