<svg xmlns="http://www.w3.org/2000/svg" width="27.956" height="30.3" viewBox="0 0 27.956 30.3">
  <g id="Group_1551" data-name="Group 1551" transform="translate(0.15 0.15)">
    <path id="Path_3943" data-name="Path 3943" d="M385.069,15.581l3.182,2.654a1.172,1.172,0,1,0,1.5-1.8l-3.182-2.654a1.172,1.172,0,1,0-1.5,1.8Z" transform="translate(-363.282 -12.718)" fill="#33b544" stroke="#f4fbf5" stroke-width="0.3"/>
    <path id="Path_3944" data-name="Path 3944" d="M34.218,18.507a1.167,1.167,0,0,0,.75-.272l3.182-2.653a1.172,1.172,0,1,0-1.5-1.8l-3.182,2.654a1.172,1.172,0,0,0,.751,2.072Z" transform="translate(-32.281 -12.718)" fill="#33b544" stroke="#f4fbf5" stroke-width="0.3"/>
    <path id="Path_3945" data-name="Path 3945" d="M43.606,6.394a13.724,13.724,0,0,0-8.606-4V1.172a1.172,1.172,0,0,0-2.344,0V2.393A13.828,13.828,0,0,0,24.05,25.95a13.83,13.83,0,0,0,17.973,1.361,1.172,1.172,0,1,0-1.39-1.887A11.469,11.469,0,1,1,43.9,21.7a1.172,1.172,0,0,0,2.053,1.13A13.835,13.835,0,0,0,43.606,6.394Z" transform="translate(-20)" fill="#33b544" stroke="#f4fbf5" stroke-width="0.3"/>
    <path id="Path_3946" data-name="Path 3946" d="M224.053,151.408a1.172,1.172,0,0,0-1.648.174l-3.695,4.566a2.346,2.346,0,1,0,1.822,1.475l3.7-4.566A1.172,1.172,0,0,0,224.053,151.408Z" transform="translate(-204.516 -142.291)" fill="#33b544" stroke="#f4fbf5" stroke-width="0.3"/>
  </g>
</svg>
