<svg xmlns="http://www.w3.org/2000/svg" width="30.006" height="30" viewBox="0 0 30.006 30">
  <path id="Path_3942" data-name="Path 3942" d="M29.7,10.981a6.16,6.16,0,0,0-7.752-3.95,7.289,7.289,0,0,0-1.284.567,7.284,7.284,0,0,0,.143-1.4c0-3.425-2.367-6.152-5.742-6.152A5.912,5.912,0,0,0,9.2,6.2a7.285,7.285,0,0,0,.143,1.4,7.293,7.293,0,0,0-1.284-.567,6.16,6.16,0,0,0-7.752,3.95,6.367,6.367,0,0,0,3.95,7.958,7.291,7.291,0,0,0,1.372.3,7.292,7.292,0,0,0-.936,1.046,6.159,6.159,0,0,0,1.361,8.594,5.817,5.817,0,0,0,8.307-1.361,7.293,7.293,0,0,0,.705-1.214,7.287,7.287,0,0,0,.705,1.214,5.677,5.677,0,0,0,8.183,1.361,6.159,6.159,0,0,0,1.361-8.594,7.289,7.289,0,0,0-.936-1.046,7.3,7.3,0,0,0,1.372-.3A6.367,6.367,0,0,0,29.7,10.981ZM15.064,1.807c2.309,0,3.984,1.848,3.984,4.395a7.667,7.667,0,0,1-1.2,3.78.875.875,0,0,0-.13.475L16.8,12.04a4.463,4.463,0,0,0-.872-.271v-3.6a.869.869,0,0,0-.867-.879.879.879,0,0,0-.879.879v3.6a4.361,4.361,0,0,0-.879.28l-1.022-1.674a.875.875,0,0,0-.128-.394,7.667,7.667,0,0,1-1.2-3.78A4.165,4.165,0,0,1,15.064,1.807ZM4.8,17.267a4.644,4.644,0,0,1-2.822-5.743A4.4,4.4,0,0,1,7.514,8.7a7.384,7.384,0,0,1,2.843,1.89l1.509,2.472a4.417,4.417,0,0,0-.624.844l-3.43-1.114a.879.879,0,1,0-.543,1.672L10.7,15.58a4.285,4.285,0,0,0,0,1.006l-2.2.766A7.542,7.542,0,0,1,4.8,17.267Zm9.387,5.477a7.655,7.655,0,0,1-1.248,3.736,4.062,4.062,0,0,1-5.851.972,4.4,4.4,0,0,1-.972-6.138,8.434,8.434,0,0,1,3.338-2.43l1.8-.628a4.416,4.416,0,0,0,.572.784L9.7,21.958a.879.879,0,0,0,1.422,1.033l2.119-2.917a4.356,4.356,0,0,0,.94.307v2.363Zm.879-4.032A2.637,2.637,0,1,1,17.7,16.075,2.64,2.64,0,0,1,15.064,18.712Zm7.856,8.74a3.923,3.923,0,0,1-5.728-.972,7.661,7.661,0,0,1-1.26-3.736V20.381a4.456,4.456,0,0,0,.952-.307L19,22.991a.879.879,0,0,0,1.422-1.033L18.3,19.04a4.418,4.418,0,0,0,.568-.777l1.638.59a8.743,8.743,0,0,1,3.381,2.46A4.4,4.4,0,0,1,22.92,27.452ZM21.567,17.365l-2.14-.771a4.282,4.282,0,0,0,0-1.014l3.429-1.114a.879.879,0,0,0-.543-1.672l-3.43,1.114a4.417,4.417,0,0,0-.637-.857L19.7,10.539A7.341,7.341,0,0,1,22.491,8.7a4.4,4.4,0,0,1,5.538,2.821,4.644,4.644,0,0,1-2.822,5.743h0A7.507,7.507,0,0,1,21.567,17.365Z" transform="translate(0 -0.049)" fill="#33b544"/>
</svg>
