<svg xmlns="http://www.w3.org/2000/svg" width="26.367" height="30" viewBox="0 0 26.367 30">
  <g id="hands-and-gestures" transform="translate(-31)">
    <g id="Group_1554" data-name="Group 1554" transform="translate(31 5.332)">
      <g id="Group_1553" data-name="Group 1553">
        <path id="Path_3947" data-name="Path 3947" d="M56.694,104.242a2.635,2.635,0,0,0-1.963-4.395H49.613a17.042,17.042,0,0,0,.723-4.454v-.878A3.52,3.52,0,0,0,46.82,91h-.879a.879.879,0,0,0-.853.666l-.479,1.915c-.671,2.682-2.8,5.642-5.005,6.18a2.64,2.64,0,0,0-2.453-1.671H31.879a.879.879,0,0,0-.879.879v15.82a.879.879,0,0,0,.879.879h5.273a2.639,2.639,0,0,0,2.38-1.5l3.02,1.007a9.647,9.647,0,0,0,3.057.5h7.363a2.637,2.637,0,0,0,2.452-3.608,2.635,2.635,0,0,0,1.27-4.3,2.631,2.631,0,0,0,0-3.516Zm-18.663,8.789a.88.88,0,0,1-.879.879H32.758V99.848h4.395a.88.88,0,0,1,.879.879Zm14.941-7.91H54.73a.879.879,0,0,1,0,1.758H52.973a.879.879,0,0,0,0,1.758H54.73a.879.879,0,0,1,0,1.758H52.973a.879.879,0,0,0,0,1.758.879.879,0,0,1,0,1.758H45.61a7.893,7.893,0,0,1-2.5-.406L39.789,112.4V101.522a7.082,7.082,0,0,0,3.946-2.564,12.824,12.824,0,0,0,2.58-4.951l.312-1.25h.193a1.76,1.76,0,0,1,1.758,1.758v.878a13.908,13.908,0,0,1-.841,4.454h-1.8a.879.879,0,0,0,0,1.758H54.73a.879.879,0,0,1,0,1.758H52.973a.879.879,0,0,0,0,1.758Z" transform="translate(-31 -91)" fill="#33b544"/>
      </g>
    </g>
    <g id="Group_1556" data-name="Group 1556" transform="translate(34.516 24.727)">
      <g id="Group_1555" data-name="Group 1555">
        <circle id="Ellipse_33" data-name="Ellipse 33" cx="0.879" cy="0.879" r="0.879" fill="#33b544"/>
      </g>
    </g>
    <g id="Group_1558" data-name="Group 1558" transform="translate(46.82)">
      <g id="Group_1557" data-name="Group 1557">
        <path id="Path_3948" data-name="Path 3948" d="M301.879,0A.879.879,0,0,0,301,.879V2.7a.879.879,0,0,0,1.758,0V.879A.879.879,0,0,0,301.879,0Z" transform="translate(-301)" fill="#33b544"/>
      </g>
    </g>
    <g id="Group_1560" data-name="Group 1560" transform="translate(41.227 2.375)">
      <g id="Group_1559" data-name="Group 1559">
        <path id="Path_3949" data-name="Path 3949" d="M208.284,42.042,207.041,40.8a.879.879,0,1,0-1.243,1.243l1.243,1.243a.879.879,0,0,0,1.243-1.243Z" transform="translate(-205.54 -40.542)" fill="#33b544"/>
      </g>
    </g>
    <g id="Group_1562" data-name="Group 1562" transform="translate(51.171 2.375)">
      <g id="Group_1561" data-name="Group 1561">
        <path id="Path_3950" data-name="Path 3950" d="M377.99,40.8a.879.879,0,0,0-1.243,0L375.5,42.042a.879.879,0,0,0,1.243,1.243l1.243-1.243A.879.879,0,0,0,377.99,40.8Z" transform="translate(-375.247 -40.542)" fill="#33b544"/>
      </g>
    </g>
  </g>
</svg>
