<svg xmlns="http://www.w3.org/2000/svg" width="25.058" height="27.82" viewBox="0 0 25.058 27.82">
  <g id="hobby" transform="translate(-17.233 -15.899)">
    <path id="Path_3891" data-name="Path 3891" d="M54.231,35.39a1.382,1.382,0,0,1,0-1.953,2.286,2.286,0,0,0,.674-1.627v-.158h.46a.46.46,0,0,0,.46-.46V29.65a6.825,6.825,0,0,0,5.064-6.745,6.46,6.46,0,1,0-12.89,0,6.825,6.825,0,0,0,5.064,6.745v1.541a.46.46,0,0,0,.46.46h.46v.158a1.39,1.39,0,0,1-.4.976,2.3,2.3,0,0,0,0,3.255l1.078,1.078a1.383,1.383,0,0,1,0,1.953L53.58,40.151a2.3,2.3,0,0,0,0,3.255l.079.079a.46.46,0,0,0,.651-.651l-.079-.079a1.381,1.381,0,0,1,0-1.953l1.078-1.078a2.3,2.3,0,0,0,0-3.255Zm-5.31-12.485a5.542,5.542,0,1,1,11.048,0,5.542,5.542,0,1,1-11.048,0Zm5.524,6.905c.155,0,.308-.006.46-.018v.938h-.921v-.938C54.137,29.8,54.29,29.81,54.445,29.81Z" transform="translate(-30.667 -0.001)" fill="#2a2c30" stroke="#2a2c30" stroke-width="0.2"/>
    <path id="Path_3892" data-name="Path 3892" d="M81.818,74.615a.46.46,0,0,0-.647.067,5.44,5.44,0,0,0,0,6.736.46.46,0,1,0,.715-.58,4.52,4.52,0,0,1,0-5.576A.46.46,0,0,0,81.818,74.615Z" transform="translate(-60.828 -55.146)" fill="#2a2c30" stroke="#2a2c30" stroke-width="0.2"/>
    <path id="Path_3893" data-name="Path 3893" d="M268.89,166.905a6.46,6.46,0,1,0-12.89,0,6.825,6.825,0,0,0,5.064,6.745v1.541a.46.46,0,0,0,.46.46h.46v.619a1.39,1.39,0,0,1-.4.976,2.287,2.287,0,0,0-.674,1.628.46.46,0,1,0,.921,0,1.372,1.372,0,0,1,.4-.977,2.286,2.286,0,0,0,.674-1.627v-.619h.46a.46.46,0,0,0,.46-.46V173.65A6.825,6.825,0,0,0,268.89,166.905Zm-11.969,0a5.542,5.542,0,1,1,5.524,5.984A5.775,5.775,0,0,1,256.921,166.905Zm5.984,7.826h-.921v-.938c.152.012.306.018.46.018s.308-.006.46-.018Z" transform="translate(-226.698 -135.715)" fill="#2a2c30" stroke="#2a2c30" stroke-width="0.2"/>
    <path id="Path_3905" data-name="Path 3905" d="M289.816,221.123a.46.46,0,0,0-.648.067,5.44,5.44,0,0,0,0,6.736.46.46,0,0,0,.715-.58,4.52,4.52,0,0,1,0-5.576A.46.46,0,0,0,289.816,221.123Z" transform="translate(-256.857 -193.223)" fill="#2a2c30" stroke="#2a2c30" stroke-width="0.2"/>
  </g>
</svg>
