<svg xmlns="http://www.w3.org/2000/svg" width="24.61" height="30" viewBox="0 0 24.61 30">
  <g id="kid-and-baby" transform="translate(-45.991)">
    <g id="Group_1410" data-name="Group 1410" transform="translate(45.991)">
      <g id="Group_1409" data-name="Group 1409">
        <path id="Path_3885" data-name="Path 3885" d="M69.943,22a3.283,3.283,0,0,0-2.093-1.6,3.547,3.547,0,0,0-.655-.1c.028-.313.043-.629.043-.944a10.526,10.526,0,0,0-.068-1.2,3.218,3.218,0,0,0-.472-6.414,3.5,3.5,0,0,0-.534.042,7.705,7.705,0,0,0,.326-4.939A3.566,3.566,0,0,0,68.7,3.574,3.647,3.647,0,0,0,65,0a3.758,3.758,0,0,0-3.081,1.585,8.646,8.646,0,0,0-6.96,0A3.758,3.758,0,0,0,51.874,0a3.647,3.647,0,0,0-3.708,3.574A3.566,3.566,0,0,0,50.38,6.846a7.7,7.7,0,0,0,.326,4.939,3.5,3.5,0,0,0-.534-.042,3.218,3.218,0,0,0-.472,6.414,10.535,10.535,0,0,0-.068,1.2c0,.324.016.648.045.969h-.068a3.5,3.5,0,0,0-.867.112,3.282,3.282,0,0,0-2.093,1.6,7.044,7.044,0,0,0-.374,5.008A4.138,4.138,0,0,0,50.284,30c.078,0,.157,0,.235-.007h.044a4.179,4.179,0,0,0,3.525-2.3,8.185,8.185,0,0,0,8.524.1c.021.039.041.077.063.115a4.1,4.1,0,0,0,2.562,1.923,4.317,4.317,0,0,0,1.071.136,4.137,4.137,0,0,0,4.008-2.96A7.042,7.042,0,0,0,69.943,22ZM49.338,3.574a2.474,2.474,0,0,1,2.536-2.4A2.55,2.55,0,0,1,54.192,2.6a.586.586,0,0,0,.8.269,7.459,7.459,0,0,1,6.882,0,.586.586,0,0,0,.8-.269A2.551,2.551,0,0,1,65,1.172a2.474,2.474,0,0,1,2.536,2.4A2.393,2.393,0,0,1,66.1,5.738a7.885,7.885,0,0,0-.48-.922.586.586,0,0,0-1,.608,6.676,6.676,0,0,1,.589,1.243c0,.011.008.021.012.031a6.514,6.514,0,0,1,.36,2.14,6.961,6.961,0,0,1-6.558,6.789V11.269a2.2,2.2,0,0,0,1.448-1.95c0-.427-.2-1.419-2.034-1.419S56.4,8.893,56.4,9.319a2.2,2.2,0,0,0,1.448,1.95v4.358a6.961,6.961,0,0,1-6.558-6.789,6.517,6.517,0,0,1,.371-2.172.586.586,0,0,0-.415-.765A2.426,2.426,0,0,1,49.338,3.574Zm9.1,16.587a.586.586,0,0,0-.586.586v1.776a4.1,4.1,0,0,1-2.79-6.389,8.624,8.624,0,0,0,6.752,0,4.1,4.1,0,0,1-2.79,6.389V20.747A.586.586,0,0,0,58.435,20.161ZM57.574,9.319c0-.057,0-.081.1-.128a2.529,2.529,0,0,1,1.53,0c.1.048.1.071.1.128a.862.862,0,1,1-1.723,0ZM52.9,27.356a2.937,2.937,0,0,1-1.838,1.373,3.156,3.156,0,0,1-.583.093h0q-.1.006-.2.006a2.962,2.962,0,0,1-2.88-2.1,5.91,5.91,0,0,1,.26-4.106,2.122,2.122,0,0,1,1.369-1.049,2.324,2.324,0,0,1,.576-.075,2.182,2.182,0,0,1,.577.078l.026.008c1.51.431,2.594,2.4,2.956,3.692A2.688,2.688,0,0,1,52.9,27.356ZM62.3,24.925a3.847,3.847,0,0,0-.081,1.739,7.022,7.022,0,0,1-7.806-.162,3.855,3.855,0,0,0-.111-1.546c-.427-1.524-1.628-3.655-3.412-4.381a9.326,9.326,0,0,1,.067-2.875.586.586,0,0,0-.618-.689c-.054,0-.108.006-.162.006a2.054,2.054,0,1,1,0-4.1,2.219,2.219,0,0,1,1.518.587,8.257,8.257,0,0,0,2.319,2.092,5.275,5.275,0,1,0,8.852,0A8.253,8.253,0,0,0,65.18,13.5a2.219,2.219,0,0,1,1.518-.587,2.054,2.054,0,1,1,0,4.1c-.054,0-.108,0-.162-.006a.586.586,0,0,0-.618.689A9.335,9.335,0,0,1,66,20.439C64.056,21.037,62.745,23.319,62.3,24.925Zm6.892,1.768a2.962,2.962,0,0,1-2.88,2.1,3.141,3.141,0,0,1-.78-.1,2.936,2.936,0,0,1-1.838-1.373,2.688,2.688,0,0,1-.266-2.083c.382-1.363,1.563-3.471,3.2-3.747l.019,0a2.15,2.15,0,0,1,.341-.027,2.323,2.323,0,0,1,.576.075,2.122,2.122,0,0,1,1.369,1.049A5.909,5.909,0,0,1,69.188,26.693Z" transform="translate(-45.991)" fill="#2a2c30"/>
      </g>
    </g>
    <g id="Group_1412" data-name="Group 1412" transform="translate(61.138 6.639)">
      <g id="Group_1411" data-name="Group 1411">
        <path id="Path_3886" data-name="Path 3886" d="M305.484,113.305a.941.941,0,1,0,.982.94A.964.964,0,0,0,305.484,113.305Z" transform="translate(-304.502 -113.305)" fill="#2a2c30"/>
      </g>
    </g>
    <g id="Group_1414" data-name="Group 1414" transform="translate(53.768 6.639)">
      <g id="Group_1413" data-name="Group 1413">
        <path id="Path_3887" data-name="Path 3887" d="M179.705,113.305a.941.941,0,1,0,.982.94A.964.964,0,0,0,179.705,113.305Z" transform="translate(-178.723 -113.305)" fill="#2a2c30"/>
      </g>
    </g>
    <g id="Group_1416" data-name="Group 1416" transform="translate(63.432 3.136)">
      <g id="Group_1415" data-name="Group 1415">
        <path id="Path_3888" data-name="Path 3888" d="M344.664,53.7l-.014-.014a.586.586,0,0,0-.818.84l0,0a.585.585,0,0,0,.827,0A.588.588,0,0,0,344.664,53.7Z" transform="translate(-343.655 -53.52)" fill="#2a2c30"/>
      </g>
    </g>
    <g id="Group_1418" data-name="Group 1418" transform="translate(57.849 18.463)">
      <g id="Group_1417" data-name="Group 1417">
        <path id="Path_3889" data-name="Path 3889" d="M248.955,315.105a.586.586,0,0,0-.586.586v.014a.586.586,0,1,0,1.172,0v-.014A.586.586,0,0,0,248.955,315.105Z" transform="translate(-248.369 -315.105)" fill="#2a2c30"/>
      </g>
    </g>
  </g>
</svg>
