<svg xmlns="http://www.w3.org/2000/svg" xmlns:xlink="http://www.w3.org/1999/xlink" width="171.919" height="44" viewBox="0 0 171.919 44">
  <defs>
    <clipPath id="clip-path">
      <path id="Path_1885" data-name="Path 1885" d="M441.715,425.5a34.294,34.294,0,0,0-10.635,1.576,25.662,25.662,0,0,0-8.369,4.431,20.405,20.405,0,0,0-5.482,6.827,19.306,19.306,0,0,0-1.969,8.7,20,20,0,0,0,2,8.895,21.715,21.715,0,0,0,5.514,7.09,26.128,26.128,0,0,0,8.37,4.694,31.669,31.669,0,0,0,10.569,1.706h21.727c5.987,0,7.683-4.27,7.683-7.22V457.3c0-12.4-13.654-15.262-13.654-15.262v16.084H441.715a17.305,17.305,0,0,1-5.218-.755,12.35,12.35,0,0,1-4.1-2.134,10.116,10.116,0,0,1-2.692-3.315,9.814,9.814,0,0,1,0-8.567,10.027,10.027,0,0,1,2.757-3.381,13.887,13.887,0,0,1,4.136-2.231,15.506,15.506,0,0,1,5.12-.821H449.3c10.849,0,19.238-11.422,19.238-11.422Z" transform="translate(-415.26 -425.497)" fill="none"/>
    </clipPath>
    <clipPath id="clip-path-2">
      <path id="Path_1886" data-name="Path 1886" d="M436.033,446.094q.049-.325.121-.643a10.364,10.364,0,0,1-5.719.235,12.831,12.831,0,0,1-3.77-1.86,11.357,11.357,0,0,0,9.367,2.267m28.032-20.6-.187.078c-5.5,2.336-10.311,7.082-15.09,11.345h3.1a49.076,49.076,0,0,1,5.433-3.569c3.969-2.147,8.388-3.47,12.7-2.007a37.827,37.827,0,0,0,4.967-4.909,13.376,13.376,0,0,0-1.735-.937Z" transform="translate(-426.666 -425.497)" fill="none"/>
    </clipPath>
    <linearGradient id="linear-gradient" x1="-3.254" y1="9.994" x2="-3.246" y2="9.994" gradientUnits="objectBoundingBox">
      <stop offset="0" stop-color="#f1610e"/>
      <stop offset="1" stop-color="#ed3000"/>
    </linearGradient>
    <clipPath id="clip-path-4">
      <path id="Path_1892" data-name="Path 1892" d="M445.8,425.5q-1.6,0-3.133.121c-3.564,2.991-7.364,5.78-11.588,6.73a9.81,9.81,0,0,1-5.1-.151,20.3,20.3,0,0,0-4.252,5.335c2.9,2.388,6.325,3.451,10.321,1.905,5.718-2.212,10.511-7.083,15.224-11.485.875-.816,1.755-1.641,2.646-2.455Z" transform="translate(-421.737 -425.497)" fill="none"/>
    </clipPath>
    <linearGradient id="linear-gradient-2" x1="-5.516" y1="13.674" x2="-5.503" y2="13.674" gradientUnits="objectBoundingBox">
      <stop offset="0" stop-color="#ffb800"/>
      <stop offset="1" stop-color="#ff8f00"/>
    </linearGradient>
    <clipPath id="clip-path-7">
      <path id="Path_1895" data-name="Path 1895" d="M564.305,405.2a40.818,40.818,0,0,1,5.91,8.543V405.2Z" transform="translate(-564.305 -405.2)" fill="none"/>
    </clipPath>
    <linearGradient id="linear-gradient-3" x1="-35.188" y1="25.663" x2="-35.126" y2="25.663" gradientUnits="objectBoundingBox">
      <stop offset="0" stop-color="#a82ea6"/>
      <stop offset="1" stop-color="#30052c"/>
    </linearGradient>
    <clipPath id="clip-path-8">
      <path id="Path_1897" data-name="Path 1897" d="M447.545,425.5c-.769.708-1.529,1.423-2.285,2.131-4.713,4.416-9.505,9.3-15.224,11.528-3.949,1.538-7.345.525-10.225-1.8q-.269.478-.515.973a18.722,18.722,0,0,0-.763,1.762c3.123,3.219,6.934,5.012,11.5,3.435a20.678,20.678,0,0,0,2.114-.867,10.079,10.079,0,0,1,2.376-2.689,13.888,13.888,0,0,1,4.136-2.231q.64-.223,1.31-.385c1.8-1.517,3.55-3.13,5.287-4.68a77.5,77.5,0,0,1,8.857-7.179Z" transform="translate(-418.533 -425.497)" fill="none"/>
    </clipPath>
    <linearGradient id="linear-gradient-4" x1="-4.336" y1="10.8" x2="-4.326" y2="10.8" xlink:href="#linear-gradient-2"/>
    <clipPath id="clip-path-10">
      <path id="Path_1909" data-name="Path 1909" d="M430.436,447.342a10.349,10.349,0,0,1-3.77-.541c3.21,1.562,6.428.8,9.4-.9.036-.207.079-.412.129-.615a11.993,11.993,0,0,1-5.758,2.057M456.526,425.5a67.436,67.436,0,0,0-9.37,8.663c-.884,1.07-1.825,2.231-2.819,3.405a14.631,14.631,0,0,1,1.769-.415c3.7-3.9,7.241-8,11.206-11.538l.129-.115Z" transform="translate(-426.666 -425.497)" fill="none"/>
    </clipPath>
    <linearGradient id="linear-gradient-5" x1="-5.111" y1="9.261" x2="-5.099" y2="9.261" xlink:href="#linear-gradient"/>
  </defs>
  <g id="Group_160" data-name="Group 160" transform="translate(-415.26 -425.497)">
    <g id="Group_136" data-name="Group 136" transform="translate(479.026 432.355)">
      <path id="Path_1877" data-name="Path 1877" d="M607.594,469.626a21.964,21.964,0,0,1-7.241,1.294c-3.568,0-6.506-.909-8.814-3.113a12.126,12.126,0,0,1-3.288-8.78c.035-7.031,4.862-12.173,12.768-12.173a14.581,14.581,0,0,1,5.876,1.084l-.735,2.484a12.217,12.217,0,0,0-5.212-1.014c-5.736,0-9.479,3.568-9.479,9.479,0,5.981,3.6,9.515,9.095,9.515a9.932,9.932,0,0,0,4.058-.63v-7.031h-4.792v-2.448h7.765Z" transform="translate(-588.251 -445.841)" fill="#212121"/>
      <path id="Path_1878" data-name="Path 1878" d="M660.163,481.82l-.245-2.134h-.105a6.306,6.306,0,0,1-5.177,2.518,4.824,4.824,0,0,1-5.177-4.862c0-4.092,3.638-6.331,10.179-6.3v-.35c0-1.4-.385-3.918-3.847-3.918a8.437,8.437,0,0,0-4.408,1.259l-.7-2.029a10.507,10.507,0,0,1,5.562-1.5c5.177,0,6.436,3.533,6.436,6.926v6.331a23.817,23.817,0,0,0,.28,4.058Zm-.454-8.64c-3.358-.07-7.171.525-7.171,3.813a2.724,2.724,0,0,0,2.9,2.939,4.212,4.212,0,0,0,4.093-2.834,3.212,3.212,0,0,0,.175-.979Z" transform="translate(-626.897 -456.985)" fill="#212121"/>
      <path id="Path_1879" data-name="Path 1879" d="M698.566,470.172c0-1.994-.035-3.708-.14-5.282h2.693l.105,3.323h.139a5.08,5.08,0,0,1,4.687-3.708,3.327,3.327,0,0,1,.875.105v2.9a4.62,4.62,0,0,0-1.049-.105c-2.169,0-3.708,1.644-4.128,3.953a8.7,8.7,0,0,0-.14,1.434v9.025h-3.042Z" transform="translate(-657.814 -456.985)" fill="#212121"/>
      <path id="Path_1880" data-name="Path 1880" d="M740.746,444.1v20.463c0,1.5.035,3.218.14,4.372h-2.763l-.14-2.938h-.07a6.261,6.261,0,0,1-5.771,3.323c-4.093,0-7.241-3.463-7.241-8.605-.035-5.632,3.463-9.094,7.59-9.094a5.66,5.66,0,0,1,5.107,2.588h.07V444.1Zm-3.078,14.8a5.448,5.448,0,0,0-.14-1.294,4.527,4.527,0,0,0-4.443-3.568c-3.183,0-5.072,2.8-5.072,6.541,0,3.428,1.679,6.261,5,6.261a4.627,4.627,0,0,0,4.513-3.673,5.36,5.36,0,0,0,.14-1.329Z" transform="translate(-674.53 -444.103)" fill="#212121"/>
      <path id="Path_1881" data-name="Path 1881" d="M781.361,473.914c.07,4.163,2.728,5.877,5.806,5.877a11.137,11.137,0,0,0,4.687-.874l.525,2.2a13.713,13.713,0,0,1-5.632,1.049c-5.212,0-8.325-3.428-8.325-8.535s3.008-9.13,7.94-9.13c5.527,0,7,4.862,7,7.975a11.531,11.531,0,0,1-.105,1.434Zm9.024-2.2c.035-1.959-.8-5-4.267-5-3.113,0-4.477,2.869-4.722,5Z" transform="translate(-708.323 -456.985)" fill="#212121"/>
      <path id="Path_1882" data-name="Path 1882" d="M829.047,469.472c0-1.749-.035-3.183-.14-4.582h2.728l.175,2.8h.07a6.226,6.226,0,0,1,5.6-3.183c2.344,0,5.982,1.4,5.982,7.206V481.82H840.38V472.06c0-2.729-1.014-5-3.918-5a4.373,4.373,0,0,0-4.127,3.148,4.424,4.424,0,0,0-.21,1.434V481.82h-3.078Z" transform="translate(-740.199 -456.985)" fill="#212121"/>
    </g>
    <g id="Group_138" data-name="Group 138" transform="translate(415.26 425.497)">
      <g id="Group_137" data-name="Group 137" transform="translate(0 0)" clip-path="url(#clip-path)">
        <rect id="Rectangle_429" data-name="Rectangle 429" width="65.803" height="65.498" transform="translate(-4.968 -8.207)" fill="#693090"/>
        <path id="Path_1883" data-name="Path 1883" d="M428.861,403.319a29.953,29.953,0,0,1-5.475,3.944c-5.8,3.158-10.611.82-14.447-3.944H408c3.469,5.445,8.1,9.691,14.41,7.806,4.366-1.3,8.221-4.479,11.833-7.806Z" transform="translate(-410.677 -411.494)" fill="#b80059"/>
        <path id="Path_1884" data-name="Path 1884" d="M401.741,421.8c3.567,7.736,8.818,16.57,17.355,15.388,5.856-.811,11.051-5.19,15.98-8.623,4.8-3.342,10.192-7.089,15.993-6.781,7.8.415,12.875,8.44,16.505,15.591V422.792c-4.165-6.978-10.079-12.985-17.693-10.637-5.706,1.759-10.555,6.2-15.224,10.424-4.719,4.267-9.528,9-15.224,11.033-8.216,2.93-13.959-5.032-17.693-12.7Z" transform="translate(-406.724 -416.746)" fill="#ffc600"/>
      </g>
    </g>
    <g id="Group_140" data-name="Group 140" transform="translate(419.464 425.497)">
      <g id="Group_139" data-name="Group 139" transform="translate(0 0)" clip-path="url(#clip-path-2)">
        <rect id="Rectangle_430" data-name="Rectangle 430" width="48.328" height="21.187" transform="translate(0 0)" fill="url(#linear-gradient)"/>
      </g>
    </g>
    <g id="Group_142" data-name="Group 142" transform="translate(415.26 425.497)">
      <g id="Group_141" data-name="Group 141" transform="translate(0 0)" clip-path="url(#clip-path)">
        <path id="Path_1887" data-name="Path 1887" d="M433.736,403.319c-4.409,4.617-8.965,9.609-14.3,12.079-7.8,3.611-13.612-2.536-17.693-10.368v.892c3.551,7.229,8.717,14.989,16.718,13.258,6.083-1.316,11.3-6.467,16.2-10.539,2.14-1.779,4.395-3.7,6.775-5.322Z" transform="translate(-406.724 -411.494)" fill="#f62f69"/>
        <path id="Path_1888" data-name="Path 1888" d="M561.85,403.319a38.481,38.481,0,0,1,6.815,9.5v-9.5Z" transform="translate(-507.815 -411.494)" fill="#b80059"/>
        <path id="Path_1889" data-name="Path 1889" d="M424.844,403.319c-.393.258-.791.505-1.194.737-2.949,1.7-6.3,2.511-9.571.964a11.3,11.3,0,0,1-2.56-1.7h-3.1c3.994,5.519,9.064,8.388,15.231,5.109a32.085,32.085,0,0,0,6.828-5.109Z" transform="translate(-410.941 -411.494)" fill="#682f97"/>
        <path id="Path_1890" data-name="Path 1890" d="M553.478,403.319c3.956,1.664,7.268,5.53,9.9,9.863V411.56a42.109,42.109,0,0,0-5.637-8.241Z" transform="translate(-502.529 -411.494)" fill="#4c0b4a"/>
      </g>
    </g>
    <g id="Group_144" data-name="Group 144" transform="translate(417.648 425.497)">
      <g id="Group_143" data-name="Group 143" transform="translate(0 0)" clip-path="url(#clip-path-4)">
        <rect id="Rectangle_431" data-name="Rectangle 431" width="28.192" height="15.486" transform="translate(0 0)" fill="url(#linear-gradient-2)"/>
      </g>
    </g>
    <g id="Group_146" data-name="Group 146" transform="translate(415.26 425.497)">
      <g id="Group_145" data-name="Group 145" transform="translate(0 0)" clip-path="url(#clip-path)">
        <path id="Path_1893" data-name="Path 1893" d="M425.917,403.319c-2.631,2.212-4.407,4.1-7.458,5.1-5.331,1.739-9.488-.948-12.762-5.1h-3.956v1.72c4.081,7.833,9.891,13.978,17.692,10.37,5.341-2.471,9.9-7.47,14.313-12.09Z" transform="translate(-406.724 -411.494)" fill="#ad66f1"/>
      </g>
    </g>
    <g id="Group_150" data-name="Group 150" transform="translate(415.26 425.497)">
      <g id="Group_149" data-name="Group 149" transform="translate(0 0)" clip-path="url(#clip-path)">
        <g id="Group_148" data-name="Group 148" transform="translate(54.94 -7.482)">
          <g id="Group_147" data-name="Group 147" clip-path="url(#clip-path-7)">
            <rect id="Rectangle_432" data-name="Rectangle 432" width="5.91" height="8.542" transform="translate(0 0)" fill="url(#linear-gradient-3)"/>
          </g>
        </g>
      </g>
    </g>
    <g id="Group_152" data-name="Group 152" transform="translate(416.466 425.497)">
      <g id="Group_151" data-name="Group 151" transform="translate(0 0)" clip-path="url(#clip-path-8)">
        <rect id="Rectangle_433" data-name="Rectangle 433" width="35.584" height="19.607" transform="translate(0 0)" fill="url(#linear-gradient-4)"/>
      </g>
    </g>
    <g id="Group_154" data-name="Group 154" transform="translate(415.26 425.497)">
      <g id="Group_153" data-name="Group 153" transform="translate(0 0)" clip-path="url(#clip-path)">
        <path id="Path_1898" data-name="Path 1898" d="M401.741,450.227c3.646,7.117,8.892,14.211,16.718,11.874,6.166-1.842,11.316-7.416,16.2-11.88,4.746-4.339,10.037-9.466,16.2-10.56,7.555-1.341,12.891,5.3,16.718,12.011V437.085c-4.7-6.85-10.688-10.32-17.693-6.839-5.778,2.872-10.6,8.519-15.224,13.693-4.687,5.245-9.461,11.165-15.224,14.3-7.579,4.123-13.455-1.121-17.693-8.9Z" transform="translate(-406.724 -427.63)" fill="#79b942"/>
        <path id="Path_1899" data-name="Path 1899" d="M429.266,550.558c1.834-1.357,3.62-2.822,5.391-4.23,4.716-3.75,9.612-7.64,15.224-8.77,7.843-1.58,13.664,5.373,17.693,12.559,0-.648,0-.972,0-1.621-3.631-7.144-8.7-15.157-16.5-15.556-5.8-.3-11.2,3.462-15.993,6.813-4.928,3.442-10.122,7.833-15.98,8.655-8.534,1.2-13.787-7.62-17.355-15.353v8.029a44.74,44.74,0,0,0,5.637,9.475Z" transform="translate(-406.724 -493.324)" fill="#ff9b00"/>
        <path id="Path_1900" data-name="Path 1900" d="M401.741,516.317c3.567,7.736,8.817,16.57,17.355,15.388,5.856-.81,11.051-5.19,15.98-8.622,4.8-3.342,10.191-7.088,15.992-6.781,7.8.415,12.876,8.44,16.505,15.591q0-7.294,0-14.588c-4.165-6.977-10.078-12.985-17.692-10.637-5.706,1.76-10.555,6.2-15.224,10.425-4.719,4.266-9.528,9-15.224,11.032-8.216,2.931-13.96-5.031-17.693-12.7Z" transform="translate(-406.724 -476.421)" fill="#f62f69"/>
        <path id="Path_1901" data-name="Path 1901" d="M463.879,518.412c-6.128,2.6-11.4,8.194-16.722,12.778-4.884,4.2-10.795,8.865-16.721,7.333a12.82,12.82,0,0,1-3.77-1.86c10.682,8.022,21.35-5.44,30.66-10.476,4-2.165,8.464-3.492,12.813-1.968,6.1,2.137,10.075,8.69,13.172,14.748v-10c-4.668-8.261-11.078-14.1-19.432-10.552" transform="translate(-422.462 -483.494)" fill="#ff558d"/>
        <path id="Path_1902" data-name="Path 1902" d="M489.034,567.725a24.266,24.266,0,0,1,6.085-2.181,13.221,13.221,0,0,1,10.235,2.181h3.9c-3.405-4.231-7.561-7.394-12.744-7.662-6.572-.34-12.695,3.8-18.175,7.662Z" transform="translate(-455.087 -510.448)" fill="#8f42e9"/>
        <path id="Path_1903" data-name="Path 1903" d="M474.648,556.06a55.52,55.52,0,0,1,6.07-4.009c4.7-2.57,9.936-4.145,15.041-2.336a20.109,20.109,0,0,1,8.508,6.345h6.954v-.714c-5.481-9.8-13-16.732-22.812-12.522-6.361,2.731-11.936,8.236-17.463,13.236Z" transform="translate(-450.419 -498.783)" fill="#ad66f1"/>
        <path id="Path_1904" data-name="Path 1904" d="M401.741,475.838c3.551,7.229,8.716,14.989,16.718,13.257,6.083-1.316,11.3-6.467,16.2-10.538,4.782-3.976,10.136-8.641,16.2-9.219,7.708-.733,12.968,6.505,16.718,13.395q0-7.294,0-14.588c-4.535-6.98-10.469-11.308-17.693-8.3-5.722,2.38-10.584,7.625-15.224,12.432-4.7,4.868-9.515,10.4-15.224,13.04-7.8,3.611-13.612-2.537-17.693-10.369Z" transform="translate(-406.724 -446.57)" fill="#02b9db"/>
        <path id="Path_1905" data-name="Path 1905" d="M419.434,451.9c5.756-3.06,10.538-8.93,15.224-14.12,4.624-5.12,9.452-10.71,15.224-13.512,7.04-3.416,13.017.183,17.693,7.049v-6.4q-.292-.495-.583-.961c-4.755-6.328-10.567-8.88-17.11-5.417-5.795,3.068-10.6,8.867-15.224,14.19-4.685,5.4-9.442,11.464-15.224,14.8-2.949,1.7-6.3,2.511-9.57.963-3.627-1.718-6.072-5.59-8.122-9.289v3.521q.291.6.582,1.156c4.238,7.328,9.932,11.836,17.109,8.02" transform="translate(-406.725 -420.122)" fill="#33b544"/>
        <path id="Path_1906" data-name="Path 1906" d="M467.574,497.391c-3.757-6.87-9.025-14.048-16.718-13.25-6.074.63-11.421,5.345-16.2,9.357-4.9,4.112-10.1,9.308-16.2,10.678-7.984,1.8-13.158-5.9-16.718-13.114v8.029c3.772,7.637,9.549,15.325,17.692,12.174,5.718-2.212,10.511-7.083,15.224-11.485,4.662-4.354,9.5-8.939,15.224-10.878,7.539-2.552,13.483,3.184,17.692,10.11,0-.648,0-.973,0-1.622" transform="translate(-406.724 -462.485)" fill="#3b81c1"/>
        <path id="Path_1907" data-name="Path 1907" d="M467.574,459.5c-3.858-6.662-9.218-13.084-16.718-11.546-6.193,1.271-11.461,6.548-16.2,11.01-4.88,4.6-10,10.31-16.2,12.33-7.762,2.532-13.036-4.32-16.718-11.409v8.029c4.082,7.833,9.891,13.979,17.692,10.37,5.709-2.641,10.527-8.171,15.224-13.039,4.639-4.806,9.5-10.051,15.224-12.43,7.226-3,13.158,1.325,17.693,8.3Z" transform="translate(-406.724 -439.53)" fill="#089450"/>
      </g>
    </g>
    <g id="Group_156" data-name="Group 156" transform="translate(419.464 425.497)">
      <g id="Group_155" data-name="Group 155" transform="translate(0 0)" clip-path="url(#clip-path-10)">
        <rect id="Rectangle_434" data-name="Rectangle 434" width="30.776" height="22.866" transform="translate(0 0)" fill="url(#linear-gradient-5)"/>
      </g>
    </g>
    <g id="Group_158" data-name="Group 158" transform="translate(415.26 425.497)">
      <g id="Group_157" data-name="Group 157" transform="translate(0 0)" clip-path="url(#clip-path)">
        <path id="Path_1910" data-name="Path 1910" d="M419.434,433.022c5.709-2.642,10.527-8.171,15.224-13.039,4.639-4.806,9.5-10.051,15.224-12.43,7.226-3,13.158,1.325,17.693,8.3v-1.621c-2.689-4.644-6.108-9.168-10.473-10.964h-8.309c-5.312,1.874-9.933,6.47-14.135,10.428-4.88,4.6-10.006,10.31-16.2,12.331-7.762,2.533-13.036-4.32-16.718-11.409v8.029c4.081,7.834,9.891,13.979,17.691,10.37" transform="translate(-406.725 -411.465)" fill="#f05b29"/>
        <path id="Path_1911" data-name="Path 1911" d="M463.759,469.123c-6.219,3.492-11.408,9.78-16.722,15.092-4.713,4.712-10.6,10.042-16.766,9.281a11.231,11.231,0,0,1-3.794-1.318c11.065,6.774,22-8.446,30.73-14.373,3.847-2.612,8.284-4.708,12.813-3.742,6.012,1.283,10.064,7.277,13.172,12.925q0-5,0-10c-2.211-3.606-4.8-7.2-8.418-8.909-3.741-1.767-7.6-.87-11.014,1.046" transform="translate(-422.342 -451.781)" fill="#04c1e5"/>
        <path id="Path_1912" data-name="Path 1912" d="M467.574,418.674c-3.946-6.385-9.323-11.91-16.5-9.784-6.219,1.842-11.359,7.549-15.993,12.408-4.881,5.117-9.818,11.235-15.98,14.243-7.7,3.76-13.314-2.4-17.355-9.744v8.491c4.294,7.768,10.191,12.713,17.692,8.434,5.779-3.3,10.539-9.335,15.224-14.7,4.621-5.294,9.431-11.063,15.224-14.1,6.928-3.627,12.933-.437,17.693,6.37Z" transform="translate(-406.724 -414.719)" fill="#f9b23f"/>
      </g>
    </g>
    <g id="Group_159" data-name="Group 159" transform="translate(533.683 464.075)">
      <path id="Path_1914" data-name="Path 1914" d="M736.529,530.892a6.334,6.334,0,0,1,1.2-.105,2.1,2.1,0,0,1,1.391.369,1.063,1.063,0,0,1,.421.895,1.2,1.2,0,0,1-.857,1.113v.015a1.307,1.307,0,0,1,1.045,1.271,1.366,1.366,0,0,1-.429,1.015,2.544,2.544,0,0,1-1.752.474,7.607,7.607,0,0,1-1.015-.06Zm.654,2.076h.594c.692,0,1.1-.361,1.1-.85,0-.594-.451-.827-1.113-.827a2.831,2.831,0,0,0-.579.045Zm0,2.429a3.435,3.435,0,0,0,.549.03c.677,0,1.3-.248,1.3-.985,0-.692-.594-.978-1.309-.978h-.541Z" transform="translate(-736.529 -530.554)" fill="#5e5e5e"/>
      <path id="Path_1915" data-name="Path 1915" d="M749.052,538.264l-.053-.459h-.022a1.356,1.356,0,0,1-1.113.541,1.037,1.037,0,0,1-1.113-1.045c0-.88.782-1.361,2.188-1.354v-.075a.75.75,0,0,0-.827-.842,1.812,1.812,0,0,0-.947.271l-.15-.436a2.26,2.26,0,0,1,1.2-.323c1.113,0,1.384.76,1.384,1.489v1.361a5.147,5.147,0,0,0,.06.872Zm-.1-1.857c-.722-.015-1.541.112-1.541.819a.585.585,0,0,0,.624.632.906.906,0,0,0,.88-.609.7.7,0,0,0,.037-.21Z" transform="translate(-742.983 -532.924)" fill="#5e5e5e"/>
      <path id="Path_1916" data-name="Path 1916" d="M758.014,533.524h.015c.09-.128.218-.286.324-.414l1.067-1.256h.8l-1.406,1.5,1.6,2.143h-.805l-1.255-1.745-.339.376v1.369h-.654v-5.339h.654Z" transform="translate(-749.681 -530.155)" fill="#5e5e5e"/>
      <path id="Path_1917" data-name="Path 1917" d="M769.936,537.413c0,.376.008.707.03.993h-.586l-.038-.594h-.015a1.371,1.371,0,0,1-1.2.677c-.571,0-1.256-.316-1.256-1.594v-2.128h.662v2.015c0,.692.21,1.158.812,1.158a.931.931,0,0,0,.932-.94v-2.233h.662Z" transform="translate(-755.685 -533.066)" fill="#5e5e5e"/>
      <path id="Path_1918" data-name="Path 1918" d="M782.559,530.89h.654v4.519h2.166v.549h-2.82Z" transform="translate(-765.592 -530.619)" fill="#5e5e5e"/>
      <path id="Path_1919" data-name="Path 1919" d="M794.971,536.414a1.779,1.779,0,0,1-1.812,1.933,1.73,1.73,0,0,1-1.744-1.872,1.777,1.777,0,0,1,1.8-1.933A1.724,1.724,0,0,1,794.971,536.414Zm-2.888.038c0,.8.459,1.4,1.105,1.4s1.105-.594,1.105-1.414c0-.617-.308-1.4-1.09-1.4S792.083,535.759,792.083,536.451Z" transform="translate(-771.183 -532.924)" fill="#5e5e5e"/>
      <path id="Path_1920" data-name="Path 1920" d="M805.472,538.142a2.438,2.438,0,0,1-1.045.21,1.729,1.729,0,0,1-1.812-1.857,1.849,1.849,0,0,1,1.955-1.933,2.216,2.216,0,0,1,.917.188l-.15.512a1.533,1.533,0,0,0-.767-.173,1.372,1.372,0,0,0-.023,2.738,1.88,1.88,0,0,0,.812-.181Z" transform="translate(-778.255 -532.938)" fill="#5e5e5e"/>
      <path id="Path_1921" data-name="Path 1921" d="M814,538.264l-.053-.459h-.023a1.355,1.355,0,0,1-1.113.541,1.037,1.037,0,0,1-1.113-1.045c0-.88.782-1.361,2.188-1.354v-.075a.75.75,0,0,0-.827-.842,1.815,1.815,0,0,0-.948.271l-.15-.436a2.261,2.261,0,0,1,1.2-.323c1.113,0,1.384.76,1.384,1.489v1.361a5.147,5.147,0,0,0,.06.872Zm-.1-1.857c-.722-.015-1.542.112-1.542.819a.586.586,0,0,0,.624.632.906.906,0,0,0,.88-.609.7.7,0,0,0,.038-.21Z" transform="translate(-783.987 -532.924)" fill="#5e5e5e"/>
      <path id="Path_1922" data-name="Path 1922" d="M822.305,530.155h.662v5.339h-.662Z" transform="translate(-790.687 -530.155)" fill="#5e5e5e"/>
      <path id="Path_1923" data-name="Path 1923" d="M831.507,530.89h2.729v.549h-2.076v1.684h1.917v.541h-1.917v2.294h-.654Z" transform="translate(-796.497 -530.619)" fill="#5e5e5e"/>
      <path id="Path_1924" data-name="Path 1924" d="M841.382,530.155h.662v5.339h-.662Z" transform="translate(-802.732 -530.155)" fill="#5e5e5e"/>
      <path id="Path_1925" data-name="Path 1925" d="M849.039,536.414a1.779,1.779,0,0,1-1.812,1.933,1.731,1.731,0,0,1-1.745-1.872,1.777,1.777,0,0,1,1.8-1.933A1.724,1.724,0,0,1,849.039,536.414Zm-2.888.038c0,.8.459,1.4,1.106,1.4.632,0,1.105-.594,1.105-1.414,0-.617-.309-1.4-1.09-1.4S846.151,535.759,846.151,536.451Z" transform="translate(-805.321 -532.924)" fill="#5e5e5e"/>
      <path id="Path_1926" data-name="Path 1926" d="M857.345,535.759c0-.428-.007-.8-.03-1.135h.58l.022.714h.03a1.093,1.093,0,0,1,1.008-.8.708.708,0,0,1,.188.023v.624a.989.989,0,0,0-.226-.023.928.928,0,0,0-.887.85,1.847,1.847,0,0,0-.03.308v1.94h-.654Z" transform="translate(-812.792 -532.924)" fill="#5e5e5e"/>
      <path id="Path_1927" data-name="Path 1927" d="M864.665,531.283a.41.41,0,0,1-.819,0,.4.4,0,0,1,.414-.414A.392.392,0,0,1,864.665,531.283Zm-.737,4.663v-3.64h.662v3.64Z" transform="translate(-816.916 -530.606)" fill="#5e5e5e"/>
      <path id="Path_1928" data-name="Path 1928" d="M868.315,537.587a1.736,1.736,0,0,0,.873.263c.481,0,.707-.241.707-.542,0-.316-.188-.489-.677-.669-.654-.233-.963-.594-.963-1.03a1.123,1.123,0,0,1,1.256-1.068,1.816,1.816,0,0,1,.895.226l-.166.481a1.414,1.414,0,0,0-.744-.211c-.391,0-.609.226-.609.5,0,.3.218.436.692.617.632.241.955.557.955,1.1,0,.639-.5,1.09-1.361,1.09a2.08,2.08,0,0,1-1.023-.248Z" transform="translate(-819.633 -532.924)" fill="#5e5e5e"/>
      <path id="Path_1929" data-name="Path 1929" d="M877.012,531.93v1.045h.948v.5h-.948v1.962c0,.451.128.707.5.707a1.462,1.462,0,0,0,.384-.045l.03.5a1.624,1.624,0,0,1-.586.09.918.918,0,0,1-.715-.278,1.35,1.35,0,0,1-.256-.947v-1.985H875.8v-.5h.564V532.1Z" transform="translate(-824.464 -531.276)" fill="#5e5e5e"/>
    </g>
  </g>
</svg>
