<svg xmlns="http://www.w3.org/2000/svg" width="40" height="25" viewBox="0 0 40 25">
  <g id="Group_111" data-name="Group 111" transform="translate(-1505 -2789)">
    <rect id="Rectangle_403" data-name="Rectangle 403" width="40" height="25" rx="4" transform="translate(1505 2789)" fill="#fff"/>
    <g id="Layer_2" data-name="Layer 2" transform="translate(1510.52 2789)">
      <g id="Layer_1" data-name="Layer 1" transform="translate(0.362 0.477)">
        <rect id="Rectangle_406" data-name="Rectangle 406" width="29.489" height="24.188" fill="none"/>
        <path id="Path_1872" data-name="Path 1872" d="M24.235,94.552V93.346a.715.715,0,0,0-.755-.763.743.743,0,0,0-.675.341.705.705,0,0,0-.635-.341.635.635,0,0,0-.562.285v-.237H21.19v1.92h.422V93.5a.45.45,0,0,1,.47-.51c.277,0,.418.181.418.506V94.56h.422V93.5a.452.452,0,0,1,.47-.51c.285,0,.422.181.422.506V94.56Zm6.241-1.92H29.79v-.583h-.422v.583h-.382v.382h.39V93.9c0,.446.173.711.667.711a.98.98,0,0,0,.522-.149l-.121-.358a.772.772,0,0,1-.37.108c-.2,0-.277-.129-.277-.321v-.876h.683Zm3.564-.048a.566.566,0,0,0-.506.281v-.233H33.12v1.92h.418V93.475c0-.317.137-.494.4-.494a.681.681,0,0,1,.261.048l.129-.4a.894.894,0,0,0-.3-.052Zm-5.388.2a1.436,1.436,0,0,0-.783-.2c-.486,0-.8.233-.8.615,0,.313.233.506.663.566l.2.028c.229.032.337.092.337.2,0,.149-.153.233-.438.233a1.023,1.023,0,0,1-.639-.2l-.2.325a1.386,1.386,0,0,0,.832.249c.554,0,.876-.261.876-.627s-.253-.514-.671-.575l-.2-.028c-.181-.024-.325-.06-.325-.189s.137-.225.366-.225a1.237,1.237,0,0,1,.6.165Zm11.191-.2a.566.566,0,0,0-.506.281v-.233h-.414v1.92h.418V93.475c0-.317.137-.494.4-.494a.681.681,0,0,1,.261.048l.129-.4a.894.894,0,0,0-.3-.052Zm-5.384,1a.97.97,0,0,0,1.024,1,1,1,0,0,0,.691-.229l-.2-.337a.844.844,0,0,1-.5.173.617.617,0,0,1,0-1.229.844.844,0,0,1,.5.173l.2-.337a1,1,0,0,0-.691-.229.97.97,0,0,0-1.024,1Zm3.913,0v-.956h-.418v.233a.729.729,0,0,0-.6-.281,1,1,0,1,0,0,2.009.729.729,0,0,0,.6-.281v.233h.418Zm-1.555,0a.577.577,0,1,1,.157.435A.581.581,0,0,1,36.818,93.588Zm-5.042-1a1,1,0,1,0,.028,2.009,1.167,1.167,0,0,0,.8-.261l-.2-.309a.914.914,0,0,1-.558.2.532.532,0,0,1-.575-.47h1.426v-.161a.913.913,0,0,0-.912-1Zm0,.374a.476.476,0,0,1,.486.466h-1a.494.494,0,0,1,.51-.466Zm10.468.635V91.86h-.4v1a.729.729,0,0,0-.6-.281,1,1,0,1,0,0,2.009.729.729,0,0,0,.6-.281v.233h.4Zm.7.681a.193.193,0,0,1,.181.114.187.187,0,0,1,0,.149.192.192,0,0,1-.1.1.189.189,0,0,1-.076.016.2.2,0,0,1-.181-.117.189.189,0,0,1,0-.149.195.195,0,0,1,.187-.114Zm0,.339A.142.142,0,0,0,43,94.6a.151.151,0,0,0,.046-.032A.145.145,0,0,0,43,94.335a.145.145,0,0,0-.058-.012.151.151,0,0,0-.058.012.147.147,0,0,0-.048.032.146.146,0,0,0,.112.245Zm.012-.239a.08.08,0,0,1,.052.016.05.05,0,0,1,.018.042.048.048,0,0,1-.014.036.07.07,0,0,1-.042.018l.058.066h-.046l-.054-.066h-.018v.066h-.038v-.177Zm-.044.034v.048h.044a.042.042,0,0,0,.024,0,.02.02,0,0,0,0-.018.02.02,0,0,0,0-.018.042.042,0,0,0-.024,0Zm-2.21-.816a.577.577,0,1,1,.157.435A.581.581,0,0,1,40.7,93.592Zm-14.108,0v-.96h-.418v.233a.729.729,0,0,0-.6-.281,1,1,0,1,0,0,2.009.729.729,0,0,0,.6-.281v.233h.418Zm-1.555,0a.57.57,0,1,1,.154.436.581.581,0,0,1-.154-.436Z" transform="translate(-16.933 -73.407)" fill="#231f20"/>
        <g id="_Group_" data-name="&lt;Group&gt;" transform="translate(3.044 3.043)">
          <rect id="Rectangle_407" data-name="Rectangle 407" width="6.328" height="11.372" transform="translate(8.536 1.547)" fill="#ff5f00"/>
          <path id="_Path_" data-name="&lt;Path&gt;" d="M24.093,22.387A7.22,7.22,0,0,1,26.855,16.7a7.232,7.232,0,1,0,0,11.372,7.22,7.22,0,0,1-2.762-5.685Z" transform="translate(-15.155 -15.154)" fill="#eb001b"/>
          <path id="Path_1873" data-name="Path 1873" d="M85.1,22.384a7.232,7.232,0,0,1-11.7,5.685,7.232,7.232,0,0,0,0-11.372,7.232,7.232,0,0,1,11.7,5.685Z" transform="translate(-61.7 -15.151)" fill="#f79e1b"/>
          <path id="Path_1874" data-name="Path 1874" d="M127.635,72.341v-.233h.094V72.06h-.239v.048h.1v.233Zm.464,0V72.06h-.072l-.084.2-.084-.2h-.064v.281h.052V72.13l.078.183h.054l.078-.183v.213Z" transform="translate(-104.925 -60.628)" fill="#f79e1b"/>
        </g>
      </g>
    </g>
  </g>
</svg>
