<svg id="PayPal" xmlns="http://www.w3.org/2000/svg" width="69.619" height="17" viewBox="0 0 69.619 17">
  <path id="Path_3960" data-name="Path 3960" d="M41.6,6.749H37.751a.535.535,0,0,0-.529.452L35.664,17.08a.321.321,0,0,0,.318.371h1.839A.535.535,0,0,0,38.35,17l.42-2.665a.535.535,0,0,1,.528-.452h1.22c2.538,0,4-1.228,4.385-3.662a2.967,2.967,0,0,0-.491-2.487A3.574,3.574,0,0,0,41.6,6.749Zm.444,3.608c-.211,1.382-1.267,1.382-2.288,1.382h-.581l.408-2.582a.321.321,0,0,1,.317-.271h.266c.7,0,1.352,0,1.691.4a1.284,1.284,0,0,1,.187,1.074Zm11.072-.045H51.275a.321.321,0,0,0-.317.271l-.082.516-.129-.187a2.626,2.626,0,0,0-2.179-.773,4.242,4.242,0,0,0-4.119,3.71,3.482,3.482,0,0,0,.687,2.834,2.887,2.887,0,0,0,2.324.938,3.53,3.53,0,0,0,2.554-1.056l-.082.513a.321.321,0,0,0,.317.372H51.91A.535.535,0,0,0,52.439,17l1-6.314a.32.32,0,0,0-.316-.371ZM50.548,13.9a2.056,2.056,0,0,1-2.081,1.762,1.429,1.429,0,0,1-1.528-1.794A2.065,2.065,0,0,1,49.006,12.1a1.556,1.556,0,0,1,1.23.5,1.6,1.6,0,0,1,.312,1.305Zm12.4-3.591H61.091a.537.537,0,0,0-.443.235l-2.557,3.766-1.084-3.619a.537.537,0,0,0-.514-.382H54.672a.321.321,0,0,0-.3.425l2.042,5.993-1.92,2.71a.321.321,0,0,0,.262.507H56.6a.535.535,0,0,0,.44-.23l6.166-8.9a.321.321,0,0,0-.264-.5Z" transform="translate(-15.572 -2.947)" fill="#253b80"/>
  <path id="Path_3961" data-name="Path 3961" d="M90.385,6.749H86.531A.535.535,0,0,0,86,7.2l-1.558,9.879a.321.321,0,0,0,.317.371h1.977a.375.375,0,0,0,.37-.317l.442-2.8a.535.535,0,0,1,.528-.452H89.3c2.538,0,4-1.228,4.385-3.662a2.965,2.965,0,0,0-.492-2.487,3.571,3.571,0,0,0-2.807-.984Zm.444,3.608c-.21,1.382-1.266,1.382-2.288,1.382H87.96l.408-2.582a.32.32,0,0,1,.317-.271h.266c.7,0,1.352,0,1.691.4A1.284,1.284,0,0,1,90.829,10.357Zm11.071-.045h-1.844a.319.319,0,0,0-.317.271l-.082.516-.13-.187a2.625,2.625,0,0,0-2.178-.773,4.242,4.242,0,0,0-4.118,3.71,3.484,3.484,0,0,0,.687,2.834,2.888,2.888,0,0,0,2.324.938A3.53,3.53,0,0,0,98.8,16.565l-.082.513a.321.321,0,0,0,.318.372h1.661a.535.535,0,0,0,.528-.452l1-6.314a.322.322,0,0,0-.318-.371ZM99.329,13.9a2.055,2.055,0,0,1-2.081,1.762,1.429,1.429,0,0,1-1.528-1.794A2.066,2.066,0,0,1,97.786,12.1a1.556,1.556,0,0,1,1.23.5A1.589,1.589,0,0,1,99.329,13.9Zm4.747-6.883-1.581,10.06a.321.321,0,0,0,.317.371h1.59a.534.534,0,0,0,.529-.452l1.559-9.878a.321.321,0,0,0-.317-.371h-1.78a.322.322,0,0,0-.317.272Z" transform="translate(-36.873 -2.947)" fill="#179bd7"/>
  <path id="Path_3962" data-name="Path 3962" d="M4.556,16.87,4.851,15l-.656-.015H1.061L3.239,1.175a.178.178,0,0,1,.177-.151H8.7c1.754,0,2.965.365,3.6,1.086a2.475,2.475,0,0,1,.576,1.08,3.9,3.9,0,0,1,0,1.489l-.007.043V5.1l.3.168a2.079,2.079,0,0,1,.6.457,2.13,2.13,0,0,1,.487,1.092A4.618,4.618,0,0,1,14.184,8.4a5.578,5.578,0,0,1-.649,1.793,3.688,3.688,0,0,1-1.028,1.127,4.171,4.171,0,0,1-1.385.625,6.905,6.905,0,0,1-1.731.2H8.98a1.237,1.237,0,0,0-1.223,1.044l-.031.168-.521,3.3-.024.121a.1.1,0,0,1-.033.07.087.087,0,0,1-.054.02H4.556Z" transform="translate(-0.463 -0.447)" fill="#253b80"/>
  <path id="Path_3963" data-name="Path 3963" d="M15.686,7.667q-.024.151-.054.31c-.7,3.578-3.081,4.814-6.126,4.814H7.956a.753.753,0,0,0-.744.638l-.794,5.034-.225,1.427a.4.4,0,0,0,.392.459h2.75a.662.662,0,0,0,.653-.558l.027-.14.518-3.285.033-.18a.661.661,0,0,1,.653-.559h.411c2.664,0,4.749-1.082,5.359-4.211a3.586,3.586,0,0,0-.551-3.167,2.629,2.629,0,0,0-.753-.58Z" transform="translate(-2.702 -3.348)" fill="#179bd7"/>
  <path id="Path_3964" data-name="Path 3964" d="M15.75,6.957a5.5,5.5,0,0,0-.678-.15,8.61,8.61,0,0,0-1.367-.1H9.564a.66.66,0,0,0-.653.559l-.881,5.58-.025.163a.753.753,0,0,1,.744-.638H10.3c3.045,0,5.429-1.236,6.126-4.814.021-.106.038-.209.054-.31a3.715,3.715,0,0,0-.573-.242l-.156-.049Z" transform="translate(-3.496 -2.929)" fill="#222d65"/>
  <path id="Path_3965" data-name="Path 3965" d="M5.416,4.337a.659.659,0,0,1,.653-.558H10.21a8.61,8.61,0,0,1,1.367.1,5.5,5.5,0,0,1,.834.2,3.77,3.77,0,0,1,.573.242,3.379,3.379,0,0,0-.717-3.037C11.479.384,10.057,0,8.237,0H2.953a.755.755,0,0,0-.746.638L.006,14.589a.454.454,0,0,0,.448.525H3.716l.819-5.2.881-5.58Z" transform="translate(0 0)" fill="#253b80"/>
</svg>
