<svg id="business-and-finance" xmlns="http://www.w3.org/2000/svg" width="25.252" height="22.956" viewBox="0 0 25.252 22.956">
  <path id="Path_3966" data-name="Path 3966" d="M24.1,38.193H1.148A1.151,1.151,0,0,1,0,37.046V24.42a1.151,1.151,0,0,1,1.148-1.148H24.1a1.151,1.151,0,0,1,1.148,1.148V37.046A1.151,1.151,0,0,1,24.1,38.193Z" transform="translate(0 -23.272)" fill="#0e9347"/>
  <path id="Path_3967" data-name="Path 3967" d="M254.652,232.727a3.841,3.841,0,0,0-3.214,1.664,4.281,4.281,0,0,0-1.951-.516,4.015,4.015,0,0,0-3.96,3.443h11.995a1.167,1.167,0,0,0,1.148-.976A4.088,4.088,0,0,0,254.652,232.727Z" transform="translate(-233.418 -222.397)" fill="#0d8944"/>
  <path id="Path_3968" data-name="Path 3968" d="M43.933,59.172H25.569a2.3,2.3,0,0,0-2.3-2.3V48.842a2.3,2.3,0,0,0,2.3-2.3H43.933a2.3,2.3,0,0,0,2.3,2.3v8.035A2.3,2.3,0,0,0,43.933,59.172Z" transform="translate(-22.125 -45.398)" fill="#3bb54a"/>
  <g id="Group_1644" data-name="Group 1644" transform="translate(4.591 2.296)">
    <path id="Path_3969" data-name="Path 3969" d="M261.29,232.727a3.841,3.841,0,0,0-3.214,1.664,4.281,4.281,0,0,0-1.951-.516,3.942,3.942,0,0,0-3.616,2.3h9.355a2.29,2.29,0,0,1,2.238-2.3A4.149,4.149,0,0,0,261.29,232.727Z" transform="translate(-244.647 -224.692)" fill="#0e9347"/>
    <ellipse id="Ellipse_39" data-name="Ellipse 39" cx="4.591" cy="5.165" rx="4.591" ry="5.165" transform="translate(3.443)" fill="#0e9347"/>
    <circle id="Ellipse_40" data-name="Ellipse 40" cx="1.148" cy="1.148" r="1.148" transform="translate(0 4.017)" fill="#0e9347"/>
    <circle id="Ellipse_41" data-name="Ellipse 41" cx="1.148" cy="1.148" r="1.148" transform="translate(13.774 4.017)" fill="#0e9347"/>
  </g>
  <path id="Path_3970" data-name="Path 3970" d="M212.324,107.6h-1.148a.574.574,0,1,1,0-1.148H212.9a.574.574,0,1,0,0-1.148h-.574a.574.574,0,1,0-1.148,0,1.722,1.722,0,0,0,0,3.443h1.148a.574.574,0,0,1,0,1.148H210.6a.574.574,0,1,0,0,1.148h.574a.574.574,0,0,0,1.148,0,1.722,1.722,0,1,0,0-3.443Z" transform="translate(-199.125 -100.712)" fill="#89c763"/>
  <circle id="Ellipse_42" data-name="Ellipse 42" cx="4.017" cy="4.017" r="4.017" transform="translate(10.904 11.478)" fill="#ffca5d"/>
  <circle id="Ellipse_43" data-name="Ellipse 43" cx="4.017" cy="4.017" r="4.017" transform="translate(16.069 10.33)" fill="#f6b545"/>
  <path id="Path_3971" data-name="Path 3971" d="M329.835,232.727a4.017,4.017,0,1,0,4.017,4.017A3.993,3.993,0,0,0,329.835,232.727Zm0,6.887a2.87,2.87,0,1,1,2.87-2.87A2.842,2.842,0,0,1,329.835,239.614Z" transform="translate(-309.749 -222.397)" fill="#ffcb5b"/>
  <path id="Path_3972" data-name="Path 3972" d="M407.273,318.142h0a3.944,3.944,0,0,0,4.017-3.96h-.057a.61.61,0,0,0-.574.517,3.47,3.47,0,0,1-1.09,2.066,3.251,3.251,0,0,1-1.779.861A.514.514,0,0,0,407.273,318.142Z" transform="translate(-387.186 -299.834)" fill="#f6b545"/>
  <path id="Path_3973" data-name="Path 3973" d="M329.835,233.866h0a3.944,3.944,0,0,0-4.017,3.96h.057a.61.61,0,0,0,.574-.517,3.47,3.47,0,0,1,1.09-2.066,3.252,3.252,0,0,1,1.779-.861A.514.514,0,0,0,329.835,233.866Z" transform="translate(-309.749 -223.478)" fill="#ffe27a"/>
  <path id="Path_3974" data-name="Path 3974" d="M349.493,259.271a2.842,2.842,0,0,1,2.87-2.87,2.707,2.707,0,0,1,1.836.689,2.861,2.861,0,0,0-5.108,1.779,2.752,2.752,0,0,0,1.033,2.181A2.692,2.692,0,0,1,349.493,259.271Z" transform="translate(-331.874 -244.522)" fill="#f19920"/>
  <path id="Path_3975" data-name="Path 3975" d="M437.2,310.43a.211.211,0,0,1-.172-.057.277.277,0,0,1,0-.4,1.915,1.915,0,0,0,.517-1.32.287.287,0,0,1,.574,0,2.65,2.65,0,0,1-.631,1.722A.624.624,0,0,1,437.2,310.43Z" transform="translate(-415.396 -294.303)" fill="#ffcb5b"/>
  <g id="Group_1645" data-name="Group 1645" transform="translate(16.127 11.478)">
    <path id="Path_3976" data-name="Path 3976" d="M396.211,282.717a.542.542,0,0,1-.574-.574v-2.3a.574.574,0,0,1,1.148,0v2.3A.542.542,0,0,1,396.211,282.717Z" transform="translate(-392.251 -278.126)" fill="#f19920"/>
    <path id="Path_3977" data-name="Path 3977" d="M333.064,262.255a4.663,4.663,0,0,0-2.755-3.1A4.8,4.8,0,0,0,328.129,256a4.148,4.148,0,0,0-1.148,2.812A3.993,3.993,0,0,0,331,262.829,3.328,3.328,0,0,0,333.064,262.255Z" transform="translate(-326.981 -256)" fill="#f19920"/>
  </g>
  <g id="Group_1646" data-name="Group 1646" transform="translate(17.217 12.224)">
    <path id="Path_3978" data-name="Path 3978" d="M350.123,275.432a3.019,3.019,0,0,1-.689-1.836,2.778,2.778,0,0,1,.918-2.066,2.5,2.5,0,0,0-.344-.4,2.812,2.812,0,0,0-.918,2.123A2.752,2.752,0,0,0,350.123,275.432Z" transform="translate(-349.09 -271.128)" fill="#e78825"/>
    <path id="Path_3979" data-name="Path 3979" d="M395.636,321.164v.8a.574.574,0,0,0,1.148,0v-.115A4.688,4.688,0,0,0,395.636,321.164Z" transform="translate(-393.34 -318.696)" fill="#e78825"/>
  </g>
  <path id="Path_3980" data-name="Path 3980" d="M331.959,263.36a3.668,3.668,0,0,0-.459-1.09,2.777,2.777,0,0,1-1.664.574,2.842,2.842,0,0,1-2.87-2.87,2.812,2.812,0,0,1,.918-2.123,3.5,3.5,0,0,0-.918-.689,4.149,4.149,0,0,0-1.148,2.812,3.993,3.993,0,0,0,4.017,4.017A3.847,3.847,0,0,0,331.959,263.36Z" transform="translate(-309.749 -245.627)" fill="#f6b545"/>
  <path id="Path_3981" data-name="Path 3981" d="M409.223,372.364a3.967,3.967,0,0,1-1.435.574.61.61,0,0,0-.517.574h0a3.849,3.849,0,0,0,2.123-.631Z" transform="translate(-387.185 -355.147)" fill="#f19920"/>
  <path id="Path_3982" data-name="Path 3982" d="M326.966,257.164a4.149,4.149,0,0,0-1.148,2.812h.057a.61.61,0,0,0,.574-.517,3.571,3.571,0,0,1,1.033-2.009A2.329,2.329,0,0,1,326.966,257.164Z" transform="translate(-309.749 -245.629)" fill="#ffcb5b"/>
  <circle id="Ellipse_44" data-name="Ellipse 44" cx="4.017" cy="4.017" r="4.017" transform="translate(10.904 11.478)" fill="#f6b545"/>
  <path id="Path_3983" data-name="Path 3983" d="M290.909,318.2a3.977,3.977,0,0,0,.172,1.148h.4a4,4,0,0,0,3.845-5.165h-.4A3.993,3.993,0,0,0,290.909,318.2Z" transform="translate(-276.561 -299.833)" fill="#f19920"/>
  <path id="Path_3984" data-name="Path 3984" d="M225.107,256a4.017,4.017,0,1,0,4.017,4.017A3.993,3.993,0,0,0,225.107,256Zm0,6.887a2.87,2.87,0,1,1,2.87-2.87A2.842,2.842,0,0,1,225.107,262.887Z" transform="translate(-210.186 -244.522)" fill="#ffcb5b"/>
  <path id="Path_3985" data-name="Path 3985" d="M302.545,341.415h0a3.944,3.944,0,0,0,4.017-3.96H306.5a.61.61,0,0,0-.574.517,3.47,3.47,0,0,1-1.09,2.066,3.252,3.252,0,0,1-1.779.861A.514.514,0,0,0,302.545,341.415Z" transform="translate(-287.624 -321.96)" fill="#f6b545"/>
  <path id="Path_3986" data-name="Path 3986" d="M225.107,257.139h0a3.944,3.944,0,0,0-4.017,3.96h.057a.61.61,0,0,0,.574-.517,3.47,3.47,0,0,1,1.09-2.066,3.252,3.252,0,0,1,1.779-.861A.514.514,0,0,0,225.107,257.139Z" transform="translate(-210.186 -245.603)" fill="#ffe27a"/>
  <path id="Path_3987" data-name="Path 3987" d="M244.765,282.544a2.842,2.842,0,0,1,2.87-2.87,2.707,2.707,0,0,1,1.836.689,2.861,2.861,0,0,0-5.108,1.779,2.751,2.751,0,0,0,1.033,2.181A2.692,2.692,0,0,1,244.765,282.544Z" transform="translate(-232.311 -266.647)" fill="#f19920"/>
  <path id="Path_3988" data-name="Path 3988" d="M332.477,333.7a.211.211,0,0,1-.172-.057.277.277,0,0,1,0-.4,1.915,1.915,0,0,0,.517-1.32.287.287,0,0,1,.574,0,2.65,2.65,0,0,1-.631,1.722A.624.624,0,0,1,332.477,333.7Z" transform="translate(-315.834 -316.428)" fill="#ffcb5b"/>
  <path id="Path_3989" data-name="Path 3989" d="M291.483,305.99a.542.542,0,0,1-.574-.574v-2.3a.574.574,0,1,1,1.148,0v2.3A.542.542,0,0,1,291.483,305.99Z" transform="translate(-276.561 -288.773)" fill="#f19920"/>
  <g id="Group_1647" data-name="Group 1647" transform="translate(13.774 14.348)">
    <path id="Path_3990" data-name="Path 3990" d="M294.124,314.238a3.357,3.357,0,0,1,.23,1.09,2.842,2.842,0,0,1-2.87,2.87,1.952,1.952,0,0,1-.574-.057v.057a3.977,3.977,0,0,0,.172,1.148h.4a4,4,0,0,0,3.845-5.165h-.4A3.8,3.8,0,0,0,294.124,314.238Z" transform="translate(-290.336 -314.181)" fill="#f6b545"/>
    <circle id="Ellipse_45" data-name="Ellipse 45" cx="4.017" cy="4.017" r="4.017" transform="translate(0 0.574)" fill="#f6b545"/>
  </g>
  <path id="Path_3991" data-name="Path 3991" d="M283.289,325.818a4.017,4.017,0,1,0,4.017,4.017A3.993,3.993,0,0,0,283.289,325.818Zm0,6.887a2.87,2.87,0,1,1,2.87-2.87A2.842,2.842,0,0,1,283.289,332.7Z" transform="translate(-265.498 -310.897)" fill="#ffcb5b"/>
  <path id="Path_3992" data-name="Path 3992" d="M360.727,411.233h0a3.944,3.944,0,0,0,4.017-3.96h-.057a.61.61,0,0,0-.574.517,3.47,3.47,0,0,1-1.09,2.066,3.252,3.252,0,0,1-1.779.861A.514.514,0,0,0,360.727,411.233Z" transform="translate(-342.936 -388.334)" fill="#f6b545"/>
  <path id="Path_3993" data-name="Path 3993" d="M283.289,326.957h0a3.944,3.944,0,0,0-4.017,3.96h.057a.61.61,0,0,0,.574-.517,3.47,3.47,0,0,1,1.09-2.066,3.252,3.252,0,0,1,1.779-.861A.514.514,0,0,0,283.289,326.957Z" transform="translate(-265.498 -311.978)" fill="#ffe27a"/>
  <path id="Path_3994" data-name="Path 3994" d="M302.947,352.362a2.842,2.842,0,0,1,2.87-2.87,2.707,2.707,0,0,1,1.836.689,2.861,2.861,0,0,0-5.108,1.779,2.751,2.751,0,0,0,1.033,2.181A2.691,2.691,0,0,1,302.947,352.362Z" transform="translate(-287.624 -333.022)" fill="#f19920"/>
  <path id="Path_3995" data-name="Path 3995" d="M390.658,403.52a.211.211,0,0,1-.172-.057.277.277,0,0,1,0-.4,1.915,1.915,0,0,0,.517-1.32.287.287,0,1,1,.574,0,2.65,2.65,0,0,1-.631,1.722A.624.624,0,0,1,390.658,403.52Z" transform="translate(-371.145 -382.802)" fill="#ffcb5b"/>
  <path id="Path_3996" data-name="Path 3996" d="M349.665,375.807a.542.542,0,0,1-.574-.574v-2.3a.574.574,0,0,1,1.148,0v2.3A.542.542,0,0,1,349.665,375.807Z" transform="translate(-331.874 -355.147)" fill="#f19920"/>
</svg>
