<svg xmlns="http://www.w3.org/2000/svg" width="15" height="25.498" viewBox="0 0 15 25.498">
  <g id="Group_1362" data-name="Group 1362" transform="translate(-953 -947.416)">
    <path id="Path_66" data-name="Path 66" d="M7.5,0A7.508,7.508,0,0,0,0,7.5V18a7.5,7.5,0,0,0,15,0V7.5A7.508,7.508,0,0,0,7.5,0Zm5.97,18A5.97,5.97,0,0,1,1.53,18V7.5a5.97,5.97,0,1,1,11.94,0Zm0,0" transform="translate(953 947.416)" fill="#2a2c30"/>
    <path id="Path_67" data-name="Path 67" d="M136.064,101.852a.818.818,0,0,0-.818.818v3.767a.818.818,0,0,0,1.637,0V102.67A.818.818,0,0,0,136.064,101.852Zm0,0" transform="translate(824.436 850.549)" fill="#2a2c30"/>
  </g>
</svg>
