<svg xmlns="http://www.w3.org/2000/svg" width="40" height="25" viewBox="0 0 40 25">
  <g id="Group_232" data-name="Group 232" transform="translate(-1356 -3013)">
    <rect id="Rectangle_460" data-name="Rectangle 460" width="40" height="25" rx="4" transform="translate(1356 3013)" fill="#fff"/>
    <g id="Group_231" data-name="Group 231" transform="translate(1183.743 2804.94)">
      <g id="Group_228" data-name="Group 228" transform="translate(175.684 215.223)">
        <path id="Path_1940" data-name="Path 1940" d="M184.136,218.035a2.2,2.2,0,0,0-.467-1.977,3.417,3.417,0,0,0-2.624-.834h-3.44a.492.492,0,0,0-.486.415l-1.432,9.082a.3.3,0,0,0,.292.341H178.1l-.147.929a.258.258,0,0,0,.255.3H180a.431.431,0,0,0,.425-.363l.018-.091.337-2.138.022-.118a.431.431,0,0,1,.425-.363h.268a3.155,3.155,0,0,0,3.488-2.742,2.334,2.334,0,0,0-.358-2.062,1.707,1.707,0,0,0-.49-.378h0" transform="translate(-175.684 -215.223)" fill="#009cde"/>
        <path id="Path_1941" data-name="Path 1941" d="M184.136,218.035a2.2,2.2,0,0,0-.467-1.977,3.417,3.417,0,0,0-2.624-.834h-3.44a.492.492,0,0,0-.486.415l-1.432,9.082a.3.3,0,0,0,.292.341H178.1l.533-3.382-.017.106a.49.49,0,0,1,.484-.415h1.009c1.982,0,3.534-.805,3.988-3.134.013-.069.025-.136.035-.2" transform="translate(-175.684 -215.223)" fill="#012169"/>
        <path id="Path_1942" data-name="Path 1942" d="M179.209,218.046a.43.43,0,0,1,.425-.363h2.7a5.624,5.624,0,0,1,.89.065q.117.019.227.043t.214.055l.1.032a2.433,2.433,0,0,1,.373.157,2.2,2.2,0,0,0-.467-1.977,3.417,3.417,0,0,0-2.624-.834h-3.44a.492.492,0,0,0-.486.415l-1.432,9.082a.3.3,0,0,0,.292.341H178.1l.533-3.382Z" transform="translate(-175.684 -215.223)" fill="#003087"/>
      </g>
      <g id="Group_229" data-name="Group 229" transform="translate(186.679 220.629)">
        <path id="Path_1943" data-name="Path 1943" d="M485.109,291.378a.179.179,0,0,1,.177-.151h1.659a2.06,2.06,0,0,1,2.112,2.458,3.011,3.011,0,0,1-2.888,2.458h-1.69a.1.1,0,0,1-.1-.121Zm.7,3.682h.287a1.564,1.564,0,0,0,1.636-1.376,1.09,1.09,0,0,0-1.187-1.376h-.211a.1.1,0,0,0-.1.088Z" transform="translate(-472.884 -291.097)" fill="#003087"/>
        <path id="Path_1944" data-name="Path 1944" d="M441.509,292.461l-.106.67h1.318a.1.1,0,0,1,.1.121l-.127.81a.179.179,0,0,1-.177.152h-1.135a.179.179,0,0,0-.177.151l-.113.7h1.4a.1.1,0,0,1,.1.121l-.127.81a.179.179,0,0,1-.177.152h-2.521a.1.1,0,0,1-.1-.121l.733-4.644a.179.179,0,0,1,.177-.151H443.1a.1.1,0,0,1,.1.121l-.127.81a.179.179,0,0,1-.177.152h-1.212A.179.179,0,0,0,441.509,292.461Z" transform="translate(-431.432 -291.097)" fill="#003087"/>
        <path id="Path_1945" data-name="Path 1945" d="M549.891,296.143h-1a.1.1,0,0,1-.1-.121l.733-4.644a.179.179,0,0,1,.177-.151h1a.1.1,0,0,1,.1.121l-.733,4.644A.179.179,0,0,1,549.891,296.143Z" transform="translate(-532.601 -291.097)" fill="#003087"/>
        <path id="Path_1946" data-name="Path 1946" d="M385.455,296.143h-1.313a.145.145,0,0,1-.131-.082l-.867-1.808h-.013l-.28,1.768a.145.145,0,0,1-.143.122h-1.031a.1.1,0,0,1-.1-.121l.737-4.673a.145.145,0,0,1,.143-.123h1.786c.971,0,1.636.463,1.473,1.513a1.62,1.62,0,0,1-1.3,1.389l1.129,1.856A.1.1,0,0,1,385.455,296.143Zm-2.193-2.712h.124c.417,0,.9-.079.984-.613s-.191-.611-.637-.613h-.181a.111.111,0,0,0-.11.094Z" transform="translate(-377.569 -291.097)" fill="#003087"/>
        <path id="Path_1947" data-name="Path 1947" d="M581.371,296.143h-1a.1.1,0,0,1-.1-.121l.587-3.713h-.934a.1.1,0,0,1-.1-.121l.127-.81a.179.179,0,0,1,.177-.152h3.114a.1.1,0,0,1,.1.121l-.127.81a.179.179,0,0,1-.177.152h-.9l-.582,3.682A.179.179,0,0,1,581.371,296.143Z" transform="translate(-561.371 -291.097)" fill="#003087"/>
        <path id="Path_1948" data-name="Path 1948" d="M330.693,290.965a.111.111,0,0,1-.191.058,1.227,1.227,0,0,0-.886-.343,1.572,1.572,0,0,0-1.524,1.361,1.071,1.071,0,0,0,1.12,1.335,1.693,1.693,0,0,0,.964-.333.111.111,0,0,1,.174.108l-.182,1.125a.176.176,0,0,1-.124.141,3.563,3.563,0,0,1-1.053.2,2.232,2.232,0,0,1-2.349-2.58,2.877,2.877,0,0,1,3.13-2.592,3.157,3.157,0,0,1,.959.179.22.22,0,0,1,.14.241Z" transform="translate(-326.624 -289.437)" fill="#003087"/>
      </g>
      <g id="Group_230" data-name="Group 230" transform="translate(187.51 215.838)">
        <path id="Path_1949" data-name="Path 1949" d="M448.133,223.664h-1.107a.154.154,0,0,0-.152.13l-.448,2.838a.092.092,0,0,0,.091.107h.568a.108.108,0,0,0,.106-.091l.127-.8a.154.154,0,0,1,.152-.13h.35a1.137,1.137,0,0,0,1.26-1.052.852.852,0,0,0-.141-.714A1.027,1.027,0,0,0,448.133,223.664Zm.128,1.037c-.061.4-.364.4-.658.4h-.167l.117-.742a.092.092,0,0,1,.091-.078h.077c.2,0,.388,0,.486.114A.369.369,0,0,1,448.261,224.7Z" transform="translate(-438.53 -223.664)" fill="#009cde"/>
        <path id="Path_1950" data-name="Path 1950" d="M339.746,223.664h-1.107a.154.154,0,0,0-.152.13l-.448,2.838a.092.092,0,0,0,.091.107h.528a.154.154,0,0,0,.152-.13l.121-.766a.154.154,0,0,1,.152-.13h.35a1.137,1.137,0,0,0,1.26-1.052.852.852,0,0,0-.141-.714A1.027,1.027,0,0,0,339.746,223.664Zm.128,1.037c-.06.4-.364.4-.657.4h-.167l.117-.742a.092.092,0,0,1,.091-.078h.077c.2,0,.389,0,.486.114A.37.37,0,0,1,339.874,224.7Z" transform="translate(-338.038 -223.664)" fill="#003087"/>
        <path id="Path_1951" data-name="Path 1951" d="M375,237.085h-.53a.092.092,0,0,0-.091.078l-.023.148-.037-.054a.754.754,0,0,0-.626-.222,1.219,1.219,0,0,0-1.183,1.066,1,1,0,0,0,.2.814.83.83,0,0,0,.668.269,1.015,1.015,0,0,0,.734-.3l-.024.147a.092.092,0,0,0,.091.107h.477a.154.154,0,0,0,.152-.13l.287-1.814A.092.092,0,0,0,375,237.085Zm-.739,1.032a.591.591,0,0,1-.6.506.411.411,0,0,1-.439-.515.593.593,0,0,1,.594-.51.446.446,0,0,1,.353.144A.456.456,0,0,1,374.257,238.117Z" transform="translate(-369.98 -236.061)" fill="#003087"/>
        <path id="Path_1952" data-name="Path 1952" d="M483.383,237.085h-.53a.092.092,0,0,0-.091.078l-.023.148-.037-.054a.754.754,0,0,0-.626-.222,1.219,1.219,0,0,0-1.183,1.066,1,1,0,0,0,.2.814.83.83,0,0,0,.668.269,1.015,1.015,0,0,0,.734-.3l-.024.147a.092.092,0,0,0,.091.107h.477a.154.154,0,0,0,.152-.13l.287-1.814A.092.092,0,0,0,483.383,237.085Zm-.739,1.032a.591.591,0,0,1-.6.506.411.411,0,0,1-.439-.515.593.593,0,0,1,.594-.51.446.446,0,0,1,.353.144A.456.456,0,0,1,482.644,238.117Z" transform="translate(-470.471 -236.061)" fill="#009cde"/>
        <path id="Path_1953" data-name="Path 1953" d="M414.222,237.72h-.533a.154.154,0,0,0-.127.067l-.735,1.082-.311-1.04a.154.154,0,0,0-.147-.11h-.524a.092.092,0,0,0-.087.122l.587,1.722-.552.779a.092.092,0,0,0,.075.146h.532a.154.154,0,0,0,.126-.066l1.772-2.557A.092.092,0,0,0,414.222,237.72Z" transform="translate(-406.383 -236.696)" fill="#003087"/>
        <path id="Path_1954" data-name="Path 1954" d="M518.068,223.742l-.454,2.89a.092.092,0,0,0,.091.107h.457a.154.154,0,0,0,.152-.13l.448-2.838a.092.092,0,0,0-.091-.107h-.511A.092.092,0,0,0,518.068,223.742Z" transform="translate(-504.532 -223.664)" fill="#009cde"/>
      </g>
    </g>
  </g>
</svg>
