<svg xmlns="http://www.w3.org/2000/svg" width="14.837" height="16.7" viewBox="0 0 14.837 16.7">
  <g id="refresh" transform="translate(-29.455 0.35)">
    <g id="Group_1787" data-name="Group 1787" transform="translate(29.805)">
      <path id="Path_4005" data-name="Path 4005" d="M43.942,7.069a7.069,7.069,0,1,0-14.137,0,.419.419,0,1,0,.839,0,6.23,6.23,0,1,1,6.23,6.23h-.727l1.04-1.164a.419.419,0,1,0-.625-.559L35.074,13.24a.717.717,0,0,0,0,.956l1.487,1.664a.419.419,0,1,0,.625-.559l-1.04-1.164h.727A7.077,7.077,0,0,0,43.942,7.069Z" transform="translate(-29.805)" fill="#33b544" stroke="#33b544" stroke-width="0.7"/>
    </g>
  </g>
</svg>
