<svg xmlns="http://www.w3.org/2000/svg" width="16.3" height="16.3" viewBox="0 0 16.3 16.3">
  <g id="settings" transform="translate(-0.35 -0.35)">
    <circle id="Ellipse_25" data-name="Ellipse 25" cx="2.045" cy="2.045" r="2.045" transform="translate(6.455 6.455)" fill="none" stroke="#a5aab5" stroke-linecap="round" stroke-linejoin="round" stroke-width="1.3"/>
    <path id="Path_3930" data-name="Path 3930" d="M13.545,10.545a1.125,1.125,0,0,0,.225,1.241l.041.041a1.364,1.364,0,1,1-1.93,1.93l-.041-.041a1.134,1.134,0,0,0-1.923.8v.116a1.364,1.364,0,1,1-2.727,0v-.061a1.125,1.125,0,0,0-.736-1.03,1.125,1.125,0,0,0-1.241.225l-.041.041a1.364,1.364,0,1,1-1.93-1.93l.041-.041a1.134,1.134,0,0,0-.8-1.923H2.364a1.364,1.364,0,0,1,0-2.727h.061a1.125,1.125,0,0,0,1.03-.736A1.125,1.125,0,0,0,3.23,5.214l-.041-.041a1.364,1.364,0,1,1,1.93-1.93l.041.041A1.125,1.125,0,0,0,6.4,3.509h.055a1.125,1.125,0,0,0,.682-1.03V2.364a1.364,1.364,0,0,1,2.727,0v.061a1.134,1.134,0,0,0,1.923.8l.041-.041a1.364,1.364,0,1,1,1.93,1.93l-.041.041A1.125,1.125,0,0,0,13.491,6.4v.055a1.125,1.125,0,0,0,1.03.682h.116a1.364,1.364,0,1,1,0,2.727h-.061A1.125,1.125,0,0,0,13.545,10.545Z" fill="none" stroke="#a5aab5" stroke-linecap="round" stroke-linejoin="round" stroke-width="1.3"/>
  </g>
</svg>
