<svg xmlns="http://www.w3.org/2000/svg" width="13.111" height="15.799" viewBox="0 0 13.111 15.799">
  <path id="shopper" d="M30.909,14.948,29.959,4.377a.56.56,0,0,0-.558-.51H27.444V2.984a2.984,2.984,0,1,0-5.967,0v.883H19.518a.56.56,0,0,0-.558.51l-.953,10.613a.56.56,0,0,0,.558.61H30.356a.56.56,0,0,0,.56-.56A.57.57,0,0,0,30.909,14.948ZM22.6,2.984a1.864,1.864,0,1,1,3.728,0v.883H22.6Zm-3.419,11.5.852-9.493h1.447v1a.56.56,0,0,0,1.12,0v-1h3.728v1a.56.56,0,1,0,1.12,0v-1H28.89l.852,9.493H19.177Z" transform="translate(-17.905 0.1)" fill="#fff" stroke="#fff" stroke-width="0.2"/>
</svg>
