<svg xmlns="http://www.w3.org/2000/svg" width="16.553" height="20" viewBox="0 0 16.553 20">
  <path id="shopper" d="M34.549,19.165,33.332,5.611a.718.718,0,0,0-.715-.654h-2.51V3.826a3.825,3.825,0,1,0-7.651,0V4.958H19.945a.718.718,0,0,0-.715.654L18.008,19.218a.718.718,0,0,0,.715.782H33.841a.718.718,0,0,0,.718-.718A.731.731,0,0,0,34.549,19.165ZM23.892,3.826a2.39,2.39,0,1,1,4.78,0V4.958h-4.78ZM19.508,18.564,20.6,6.393h1.855V7.677a.718.718,0,0,0,1.436,0V6.393h4.78V7.677a.718.718,0,0,0,1.436,0V6.393h1.853l1.093,12.171H19.508Z" transform="translate(-18.005)"/>
</svg>
