<svg xmlns="http://www.w3.org/2000/svg" width="25.715" height="30.291" viewBox="0 0 25.715 30.291">
  <g id="surface1" transform="translate(0.084 0.192)">
    <path id="Path_3939" data-name="Path 3939" d="M25.517,8.139V8.115c-.013-.288-.022-.593-.027-.932A3.18,3.18,0,0,0,22.5,4.068,12.338,12.338,0,0,1,14.1.529L14.078.51a1.92,1.92,0,0,0-2.609,0L11.45.529a12.339,12.339,0,0,1-8.4,3.54A3.179,3.179,0,0,0,.059,7.183c-.005.337-.014.642-.027.932V8.17c-.067,3.517-.15,7.895,1.314,11.868a15.107,15.107,0,0,0,3.624,5.645,18.959,18.959,0,0,0,7.093,4.2,2.2,2.2,0,0,0,.291.079,2.147,2.147,0,0,0,.844,0,2.2,2.2,0,0,0,.292-.08,18.972,18.972,0,0,0,7.085-4.2A15.128,15.128,0,0,0,24.2,20.033C25.667,16.048,25.584,11.663,25.517,8.139ZM22.545,19.424c-1.544,4.188-4.7,7.064-9.639,8.792a.442.442,0,0,1-.056.015.4.4,0,0,1-.155,0,.438.438,0,0,1-.055-.015c-4.947-1.725-8.1-4.6-9.645-8.787C1.646,15.767,1.723,11.748,1.79,8.2v-.02c.014-.3.023-.624.028-.974A1.413,1.413,0,0,1,3.15,5.826,15.445,15.445,0,0,0,8.393,4.673,13.715,13.715,0,0,0,12.665,1.8a.162.162,0,0,1,.218,0,13.72,13.72,0,0,0,4.272,2.87A15.446,15.446,0,0,0,22.4,5.826,1.413,1.413,0,0,1,23.729,7.21c.005.352.014.672.028.974C23.824,11.733,23.9,15.754,22.545,19.424Zm0,0" transform="translate(0 0)" fill="#33b544" stroke="#33b544" stroke-width="0.2"/>
    <path id="Path_3940" data-name="Path 3940" d="M97.875,128.41a7.476,7.476,0,1,0,7.476,7.476A7.485,7.485,0,0,0,97.875,128.41Zm0,13.192a5.716,5.716,0,1,1,5.716-5.716A5.722,5.722,0,0,1,97.875,141.6Zm0,0" transform="translate(-85.101 -120.887)" fill="#33b544" stroke="#33b544" stroke-width="0.2"/>
    <path id="Path_3941" data-name="Path 3941" d="M159.59,212.249l-3.473,3.472-.943-.943a.88.88,0,0,0-1.245,1.245l1.565,1.565a.88.88,0,0,0,1.245,0l4.1-4.1a.88.88,0,0,0-1.245-1.244Zm0,0" transform="translate(-144.668 -199.57)" fill="#33b544" stroke="#33b544" stroke-width="0.2"/>
  </g>
</svg>
