<svg xmlns="http://www.w3.org/2000/svg" width="67.401" height="70" viewBox="0 0 67.401 70">
  <g id="tools-and-utensils" transform="translate(-0.983)">
    <path id="Path_3882" data-name="Path 3882" d="M33.807,22.251h-7.93v-7.93a1.322,1.322,0,1,0-2.643,0v7.93H15.3a1.322,1.322,0,1,0,0,2.643h7.93v7.93a1.322,1.322,0,0,0,2.643,0v-7.93h7.93a1.322,1.322,0,1,0,0-2.643Z" transform="translate(4.181 4.181)" fill="#2a2c30"/>
    <path id="Path_3883" data-name="Path 3883" d="M68.016,67.763,48.378,47.34a27.776,27.776,0,1,0-1.953,1.782L66.11,69.594a1.322,1.322,0,1,0,1.906-1.832ZM3.626,27.754a25.11,25.11,0,1,1,25.11,25.11A25.138,25.138,0,0,1,3.626,27.754Z" transform="translate(0)" fill="#2a2c30"/>
  </g>
</svg>
