<svg xmlns="http://www.w3.org/2000/svg" width="25.468" height="26.848" viewBox="0 0 25.468 26.848">
  <path id="Path_3890" data-name="Path 3890" d="M39.745,4.589a2.3,2.3,0,0,0-1.092-.772,2.284,2.284,0,0,0-.459-1.249,2.48,2.48,0,0,0-2.031-.923h0a3.972,3.972,0,0,0-2.38.857,4.017,4.017,0,0,0-1.4,1.945,2.856,2.856,0,0,0-.425,3.918l.208.271a9.311,9.311,0,0,0-1.6,1.594,4.758,4.758,0,0,0-.623.082h0a.386.386,0,0,0-.14.057,4.75,4.75,0,0,0-.773.643H27.927V8.483h.088a2.856,2.856,0,0,0,2.85-2.722,4.016,4.016,0,0,0,.688-2.3C31.552,1.553,30.323,0,28.812,0a2.3,2.3,0,0,0-1.278.4A2.284,2.284,0,0,0,26.264,0c-1.511,0-2.741,1.553-2.741,3.462a4.016,4.016,0,0,0,.688,2.3,2.856,2.856,0,0,0,2.85,2.722h.089v2.528h-2.36a6.106,6.106,0,0,0-1.7-2.07,2.851,2.851,0,0,0,.21-3.773,4.01,4.01,0,0,0-.984-2.186l-.048-.054a.389.389,0,0,0-.571.528l.029.033a3.261,3.261,0,0,1,.789,1.67L21.263,6.248a4.171,4.171,0,0,0-.872-1.6,3.926,3.926,0,0,0-2.3-1.339,1.486,1.486,0,0,1,.4-.564,1.946,1.946,0,0,1,2.1-.128.389.389,0,0,0,.324-.707,2.706,2.706,0,0,0-2.931.247A2.3,2.3,0,0,0,17.271,3.3a2.284,2.284,0,0,0-1.219.533c-1.142.99-1.054,2.969.2,4.412a4.016,4.016,0,0,0,2.025,1.287,2.832,2.832,0,0,0,1.865.881q.1.007.208.007a2.832,2.832,0,0,0,1.864-.7l.295-.255a6.7,6.7,0,0,1,1.416,1.549h-.465a1.546,1.546,0,0,0-.1,3.089,4.646,4.646,0,0,1-.1,2.343,3.13,3.13,0,0,1-.4.789,7.947,7.947,0,0,0-.162,8.434,1.889,1.889,0,0,0,1.6.882h6.491a1.888,1.888,0,0,0,1.6-.882,7.753,7.753,0,0,0,1.132-4.092,8.142,8.142,0,0,0-.159-1.607.389.389,0,1,0-.762.154,7.365,7.365,0,0,1,.144,1.453,6.976,6.976,0,0,1-1.015,3.683,1.1,1.1,0,0,1-.936.514H24.292a1.106,1.106,0,0,1-.936-.514,7.17,7.17,0,0,1,.144-7.587,3.891,3.891,0,0,0,.5-.986A5.361,5.361,0,0,0,24.15,14.1h3.539c0,.064,0,.129,0,.194a4.716,4.716,0,0,0,2.1,3.93.389.389,0,0,0,.432,0,4.739,4.739,0,0,0,1.088-1,4.509,4.509,0,0,0,.267.445,6.422,6.422,0,0,1,.576,1.048.389.389,0,1,0,.713-.31,7.209,7.209,0,0,0-.646-1.175,3.133,3.133,0,0,1-.4-.788l0-.011a4.7,4.7,0,0,0,.283-.688,4.766,4.766,0,0,0,2.163.519,4.7,4.7,0,0,0,.92-.091.389.389,0,0,0,.305-.305,4.723,4.723,0,0,0-3.956-5.6,10.236,10.236,0,0,1,1.1-1.018,2.856,2.856,0,0,0,3.791.476,4.017,4.017,0,0,0,2.242-.854A3.972,3.972,0,0,0,40.11,6.794a2.48,2.48,0,0,0-.365-2.205Zm-8.97-1.127a3.265,3.265,0,0,1-.5,1.779h-1.66A4.171,4.171,0,0,0,29,3.462,3.926,3.926,0,0,0,28.14.942a1.487,1.487,0,0,1,.672-.164C29.894.778,30.775,1.982,30.775,3.462ZM26.264.778c1.082,0,1.963,1.2,1.963,2.685a3.264,3.264,0,0,1-.5,1.779H24.8a3.265,3.265,0,0,1-.5-1.779C24.3,1.982,25.181.778,26.264.778ZM25.022,6.019h5.032a2.079,2.079,0,0,1-2.039,1.686H27.06a2.079,2.079,0,0,1-2.039-1.686ZM16.836,7.731c-.969-1.119-1.093-2.606-.274-3.315s2.272-.376,3.242.743a3.264,3.264,0,0,1,.789,1.671L18.377,8.749A3.264,3.264,0,0,1,16.836,7.731ZM21.7,9.13a2.077,2.077,0,0,1-2.645.061l3.8-3.3a2.077,2.077,0,0,1-.437,2.61Zm1.755,4.2a.769.769,0,0,1,0-1.537h4.95a4.708,4.708,0,0,0-.62,1.537ZM30,17.427a3.944,3.944,0,0,1,0-6.257,3.944,3.944,0,0,1,0,6.257Zm4.763-1.973a3.976,3.976,0,0,1-2.489-.5A4.717,4.717,0,0,0,30.98,11a3.944,3.944,0,0,1,3.787,4.456ZM34.251,3.118a3.192,3.192,0,0,1,1.907-.7h0a1.722,1.722,0,0,1,1.414.619c.659.859.24,2.291-.935,3.192a3.264,3.264,0,0,1-1.715.688L33.143,4.6a3.265,3.265,0,0,1,1.108-1.478Zm-1.1,5.53-.581-.758a2.079,2.079,0,0,1,.1-2.644l3.063,3.992A2.079,2.079,0,0,1,33.147,8.648Zm6.212-2.056a3.192,3.192,0,0,1-1.166,1.662,3.264,3.264,0,0,1-1.715.688l-1.01-1.317a4.171,4.171,0,0,0,1.647-.776,3.926,3.926,0,0,0,1.473-2.22,1.487,1.487,0,0,1,.539.433,1.723,1.723,0,0,1,.231,1.53Z" transform="translate(-14.905 0.15)" fill="#2a2c30" stroke="#2a2c30" stroke-width="0.3"/>
</svg>
