<svg xmlns="http://www.w3.org/2000/svg" xmlns:xlink="http://www.w3.org/1999/xlink" width="40" height="25" viewBox="0 0 40 25">
  <defs>
    <clipPath id="clip-path">
      <rect id="Rectangle_47" data-name="Rectangle 47" width="40" height="25" rx="5" transform="translate(1436 2939)" fill="#fff"/>
    </clipPath>
  </defs>
  <g id="Mask_Group_1" data-name="Mask Group 1" transform="translate(-1436 -2939)" clip-path="url(#clip-path)">
    <g id="Figurehead" transform="translate(1436.119 2939)">
      <g id="acceptance-logos">
        <g id="visa-electron" transform="translate(-1.057 -0.663)">
          <path id="path4147" d="M42-17.555H0V-43.881H42Z" transform="translate(0 43.881)" fill="#fff"/>
          <g id="g4153" transform="translate(5.188 7.617)">
            <g id="g4155-Clipped" transform="translate(0)">
              <g id="g4155">
                <g id="g4161">
                  <path id="path4163" d="M15.148-16.076,13.124-6.707H10.675L12.7-16.076Zm10.3,6.049,1.289-3.518.741,3.518Zm2.733,3.319h2.264l-1.978-9.369H26.378a1.114,1.114,0,0,0-1.043.687L21.662-6.707h2.571l.51-1.4h3.141l.3,1.4ZM21.789-9.766c.01-2.472-3.453-2.609-3.43-3.714.008-.336.331-.693,1.039-.785a4.666,4.666,0,0,1,2.415.419l.429-1.988a6.661,6.661,0,0,0-2.29-.414c-2.42,0-4.123,1.273-4.137,3.1-.016,1.349,1.216,2.1,2.143,2.55.954.459,1.274.754,1.27,1.164-.007.629-.762.907-1.464.917a5.157,5.157,0,0,1-2.515-.592L14.8-7.057a7.5,7.5,0,0,0,2.722.5c2.573,0,4.256-1.258,4.263-3.206Zm-10.14-6.31L7.683-6.707H5.095L3.142-14.184a1.028,1.028,0,0,0-.581-.823,10.318,10.318,0,0,0-2.415-.8L.2-16.076H4.37a1.138,1.138,0,0,1,1.129.955L6.53-9.7l2.546-6.377Z" transform="translate(-0.146 16.247)" fill="#1a1f71"/>
                </g>
                <g id="g4165" transform="translate(16.806 10.768)">
                  <path id="path4167" d="M1.37-3.135H.376v.917H1.488v.276H.04V-4.486H1.431v.276H.376v.8H1.37Z" transform="translate(-0.04 4.486)" fill="#1a1f71"/>
                </g>
                <path id="path4169" d="M31.573-5.1h.335v2.679h-.335Z" transform="translate(-12.805 15.736)" fill="#1a1f71"/>
                <g id="g4171" transform="translate(19.629 11.447)">
                  <path id="path4173" d="M1.388-2.431a.473.473,0,0,0-.465-.536.546.546,0,0,0-.515.536Zm-.983.238a.586.586,0,0,0,.632.634,1.214,1.214,0,0,0,.511-.094l.061.238A1.519,1.519,0,0,1,.992-1.3a.855.855,0,0,1-.907-.924A.886.886,0,0,1,.95-3.2a.771.771,0,0,1,.762.856.789.789,0,0,1-.012.155Z" transform="translate(-0.085 3.204)" fill="#1a1f71"/>
                </g>
                <g id="g4175" transform="translate(21.632 11.447)">
                  <path id="path4177" d="M1.614-1.519a1.306,1.306,0,0,1-.53.106.872.872,0,0,1-.918-.932.935.935,0,0,1,.991-.973,1.062,1.062,0,0,1,.465.1l-.076.253a.829.829,0,0,0-.389-.087.636.636,0,0,0-.652.691.629.629,0,0,0,.64.683.966.966,0,0,0,.411-.087l.057.249Z" transform="translate(-0.166 3.319)" fill="#1a1f71"/>
                </g>
                <g id="g4179" transform="translate(23.407 11.047)">
                  <path id="path4181" d="M.881-4.15v.438h.48v.253H.881v.985c0,.227.065.355.251.355a.625.625,0,0,0,.194-.023l.015.253a.925.925,0,0,1-.3.045.481.481,0,0,1-.362-.139.708.708,0,0,1-.13-.479v-1H.267v-.253H.553v-.34l.328-.1Z" transform="translate(-0.267 4.15)" fill="#1a1f71"/>
                </g>
                <g id="g4183" transform="translate(24.954 11.447)">
                  <path id="path4185" d="M.312-2.64c0-.215,0-.4-.015-.57H.59l.015.362H.617a.557.557,0,0,1,.514-.4.716.716,0,0,1,.092.007v.313a.521.521,0,0,0-.115-.008.465.465,0,0,0-.45.423.991.991,0,0,0-.011.155v.973H.312V-2.64Z" transform="translate(-0.297 3.247)" fill="#1a1f71"/>
                </g>
                <g id="g4187" transform="translate(26.139 11.447)">
                  <path id="path4189" d="M.416-2.233c0,.4.229.7.556.7s.56-.3.56-.709c0-.309-.156-.7-.553-.7s-.564.362-.564.706m1.46-.019a.9.9,0,0,1-.919.97.874.874,0,0,1-.884-.939.9.9,0,0,1,.914-.966.867.867,0,0,1,.888.936" transform="translate(-0.074 3.187)" fill="#1a1f71"/>
                </g>
                <g id="g4191" transform="translate(28.44 11.447)">
                  <path id="path4193" d="M.312-2.589c0-.192,0-.343-.015-.494h.3l.019.3H.621a.684.684,0,0,1,.61-.34c.255,0,.652.151.652.777v1.087H1.547V-2.31c0-.294-.11-.54-.427-.54a.483.483,0,0,0-.45.34.467.467,0,0,0-.023.155v1.1H.312V-2.589Z" transform="translate(-0.297 3.121)" fill="#1a1f71"/>
                </g>
              </g>
            </g>
          </g>
        </g>
      </g>
    </g>
  </g>
</svg>
