<svg xmlns="http://www.w3.org/2000/svg" width="15.69" height="10" viewBox="0 0 15.69 10">
  <g id="Group_1460" data-name="Group 1460" transform="translate(4212 -3893)">
    <g id="Group_173" data-name="Group 173" transform="translate(-4212 3893)">
      <g id="Group_172" data-name="Group 172" transform="translate(0 0)">
        <path id="Path_1932" data-name="Path 1932" d="M15.59,97.53c-.14-.192-3.48-4.695-7.745-4.695S.24,97.338.1,97.53a.518.518,0,0,0,0,.611c.14.192,3.48,4.695,7.745,4.695s7.605-4.5,7.745-4.695A.517.517,0,0,0,15.59,97.53ZM7.845,101.8c-3.142,0-5.863-2.989-6.669-3.966.8-.978,3.52-3.965,6.669-3.965s5.863,2.988,6.669,3.966C13.709,98.813,10.993,101.8,7.845,101.8Z" transform="translate(0 -92.835)" fill="#a5aab5"/>
      </g>
    </g>
    <g id="Group_175" data-name="Group 175" transform="translate(-4207.259 3894.896)">
      <g id="Group_174" data-name="Group 174" transform="translate(0 0)">
        <path id="Path_1933" data-name="Path 1933" d="M157.825,154.725a3.1,3.1,0,1,0,3.1,3.1A3.107,3.107,0,0,0,157.825,154.725Zm0,5.172a2.069,2.069,0,1,1,2.069-2.069A2.071,2.071,0,0,1,157.825,159.9Z" transform="translate(-154.722 -154.725)" fill="#a5aab5"/>
      </g>
    </g>
  </g>
</svg>
